<svg class="animated" id="freepik_stories-devices" xmlns="http://www.w3.org/2000/svg" viewBox="0 0 500 500" version="1.1"><style>@keyframes zoomOut{0%{opacity:0;transform:scale(1.5)}to{opacity:1;transform:scale(1)}}@keyframes lightSpeedRight{60%{transform:skewX(10deg);opacity:1}80%{transform:skewX(-2deg)}}@keyframes slideLeft{0%{opacity:0;transform:translateX(-30px)}to{opacity:1;transform:translateX(0)}}@keyframes lightSpeedLeft{60%{transform:skewX(-10deg);opacity:1}80%{transform:skewX(2deg)}}@keyframes slideRight{0%{opacity:0;transform:translateX(30px)}to{opacity:1;transform:translateX(0)}}@keyframes slideUp{0%{opacity:0;transform:translateY(30px)}to{opacity:1;transform:inherit}}@keyframes floating{0%,to{opacity:1;transform:translateY(0)}50%{transform:translateY(-10px)}}svg#freepik_stories-devices:not(.animated) .animable{opacity:0}</style><g id="freepik--Floor--inject-117" class="animable" style="transform-origin:249.996px 299.92px;animation:1s 1 forwards cubic-bezier(.36,-.01,.5,1.38) zoomOut;animation-delay:0s"><path d="M97.75 379.46c84.08 43.93 220.42 43.93 304.5 0s84.09-115.15 0-159.08-220.42-43.93-304.51 0-84.08 115.15.01 159.08z" style="transform-origin:249.996px 299.92px" id="elpe1u56dngte" class="animable" fill="#f5f5f5"/></g><g id="freepik--Plants--inject-117" class="animable" style="transform-origin:63.6933px 230.469px;animation:1s 1 forwards cubic-bezier(.36,-.01,.5,1.38) lightSpeedRight;animation-delay:0s"><path d="M76 232.34s-.5-11.28-6.68-17.84-13.17-4.91-15.62-3.5-3.93 5.15.52 7.54 13.91 7.15 15.68 11.74z" style="transform-origin:63.6801px 221.03px" id="elbr25xr9nmw7" class="animable" fill="#37474f"/><path d="M56.41 212.12c3.81.91 14.9 6.36 16.72 17.63" style="transform-origin:64.77px 220.935px" id="elbrluc7k8ku" class="animable" fill="none" stroke="#fff" stroke-linecap="round" stroke-miterlimit="10" stroke-width=".997"/><path d="M73.13 229.75c-.53-2.83-3.37-4.65-8.07-3.61s-4 .88-9.92-.3-9.82 1.43-10.12 3.69c-.34 2.46 4.47 3.28 8.1 4.68s6.18 3.29 5.5 6.53c-.58 2.77 0 5.06 4.27 5.84 3.79.69 7.68-1.69 9.41 1.82a5.56 5.56 0 007.74 2c7.96-9.12-6.91-20.65-6.91-20.65z" style="transform-origin:63.6933px 238.382px" id="el50y1irc54j9" class="animable" fill="#455a64"/><path d="M62.89 240.92a16.72 16.72 0 018.6-4.21" style="transform-origin:67.19px 238.815px" id="elf30t67wgtdf" class="animable" fill="none" stroke="#fff" stroke-linecap="round" stroke-miterlimit="10" stroke-width=".997"/><path d="M49.24 228.07c6.12.12 24.32 6.47 29.38 16.18" style="transform-origin:63.93px 236.16px" id="elh6ig4xfuzlj" class="animable" fill="none" stroke="#fff" stroke-linecap="round" stroke-miterlimit="10" stroke-width=".997"/></g><g id="freepik--Watch--inject-117" class="animable" style="transform-origin:95.2273px 303.25px;animation:1s 1 forwards cubic-bezier(.36,-.01,.5,1.38) slideLeft;animation-delay:0s"><path d="M85.25 291.77a23.07 23.07 0 01-6.66-2.87c-1.73-1-20.12-11.59-29-16.76a10.32 10.32 0 00-9.39-.14 3.8 3.8 0 00-1.46 1.4h-.33v1.14a3.51 3.51 0 002.09 2.85l29.12 16.82c1.53.87 4.2 2.49 4.85 3.81l-.45.26v1.15l13.67-7.89v-1.15z" style="transform-origin:63.05px 285.184px" id="elljx8w90cetc" class="animable" fill="#37474f"/><path d="M40.2 270.82c-2.5 1.44-2.36 3.85.3 5.39L69.62 293c2.16 1.24 6.6 4 4.4 5.22l13.67-7.89c-2.17 1.27-6.79-1.27-9.1-2.61-1.73-1-20.12-11.59-29-16.77a10.35 10.35 0 00-9.39-.13z" style="transform-origin:63.0507px 283.989px" id="ellynt14t9l3i" class="animable" fill="#455a64"/><path d="M88.63 288.59l-13.26 7.66a4.53 4.53 0 000 8l17.78 10.27a5.32 5.32 0 004.82 0l13.26-7.66a4.52 4.52 0 000-8l-17.78-10.27a5.32 5.32 0 00-4.82 0z" style="transform-origin:93.3057px 301.555px" id="elltslcak7ep" class="animable" fill="#37474f"/><path d="M75.37 296.25l13.26-7.66a5.32 5.32 0 014.82 0l17.78 10.26c1.33.77 1.33 2 0 2.79L98 309.29a5.32 5.32 0 01-4.82 0L75.37 299c-1.37-.74-1.37-2 0-2.75z" style="transform-origin:93.285px 298.94px" id="elfcwhvjy9apj" class="animable" fill="#66fcf1"/><path d="M152 332h-.32a4.34 4.34 0 00-1.76-1.72l-35.85-20.7c-1.55-.89-3-1.78-2-4.05v-1.14l-13.8 8v1.14a8 8 0 016.78 1.31c1.38.87 24.92 14.42 35.85 20.7a10.33 10.33 0 009.34.17 3 3 0 001.78-2.53z" style="transform-origin:125.145px 320.566px" id="elifsns4d73p" class="animable" fill="#37474f"/><path d="M105.07 313.66c1.38.86 24.92 14.42 35.85 20.7a10.36 10.36 0 009.34.17c2.49-1.44 2.36-3.86-.3-5.39l-35.85-20.7c-1.55-.89-3-1.79-2-4.05l-13.8 8a8 8 0 016.76 1.27z" style="transform-origin:125.177px 319.975px" id="el3rb6s16rvdu" class="animable" fill="#455a64"/><path d="M140.25 328.73a.59.59 0 000 1.12 2.14 2.14 0 001.94 0 .59.59 0 000-1.12 2.14 2.14 0 00-1.94 0z" style="transform-origin:141.22px 329.29px" id="elwumfymnzzok" class="animable" fill="#37474f"/><path d="M133.47 324.82a.6.6 0 000 1.13 2.14 2.14 0 001.94 0 .6.6 0 000-1.13 2.14 2.14 0 00-1.94 0z" style="transform-origin:134.44px 325.385px" id="elo8nb1qcmlhh" class="animable" fill="#37474f"/><path d="M126.69 320.92a.59.59 0 000 1.12 2.16 2.16 0 001.95 0 .59.59 0 000-1.12 2.16 2.16 0 00-1.95 0z" style="transform-origin:127.665px 321.48px" id="elbr93p4upeof" class="animable" fill="#37474f"/><path d="M119.92 317a.59.59 0 000 1.12 2.14 2.14 0 001.94 0 .59.59 0 000-1.12 2.14 2.14 0 00-1.94 0z" style="transform-origin:120.89px 317.56px" id="elmiidf5hagkb" class="animable" fill="#37474f"/><path d="M113.14 313.12a.59.59 0 000 1.12 2.14 2.14 0 001.94 0 .59.59 0 000-1.12 2.14 2.14 0 00-1.94 0z" style="transform-origin:114.11px 313.68px" id="eld9vfgfk74gg" class="animable" fill="#37474f"/><path d="M95.56 309.31a4.38 4.38 0 01-2.13-.5l-17.78-10.27c-.45-.26-.72-.59-.72-.9s.27-.65.72-.91l13.26-7.66a4.79 4.79 0 014.26 0L111 299.34c.46.26.72.59.72.9s-.26.65-.72.91l-13.26 7.66a4.38 4.38 0 01-2.18.5z" style="transform-origin:93.325px 298.941px" id="el9wdtohvfrc" class="animable" fill="#f0f0f0"/><path d="M91 289.13a3.83 3.83 0 011.85.42l17.78 10.27c.36.21.44.39.44.43s-.08.21-.44.42l-13.26 7.66a4.28 4.28 0 01-3.7 0l-17.74-10.27c-.36-.21-.44-.39-.44-.42s.08-.22.44-.43l13.26-7.66a3.83 3.83 0 011.85-.42M91 288a5 5 0 00-2.41.58l-13.26 7.66c-1.33.76-1.33 2 0 2.78l17.78 10.26a5.3 5.3 0 004.82 0l13.26-7.65c1.33-.77 1.33-2 0-2.79l-17.74-10.25A5 5 0 0091 288z" style="transform-origin:93.26px 298.929px" id="elz45a0jvqy9i" class="animable" fill="#fff"/><path d="M78.48 289.23l13.26-7.65a5.32 5.32 0 014.82 0l17.77 10.26c1.33.77 1.33 2 0 2.78l-13.25 7.66a5.32 5.32 0 01-4.82 0L78.48 292c-1.33-.75-1.33-2 0-2.77z" style="transform-origin:96.405px 291.93px" id="elcsmgvwt5fq" class="animable" fill="#37474f"/><text transform="matrix(1 -.58 .87 .5 91.09 297.49)" font-size="6.879" fill="#fff" font-family="AsapCondensed-Medium,AsapCondensed Medium" font-weight="500">12:00</text></g><g id="freepik--Mobile--inject-117" class="animable" style="transform-origin:217.565px 315.917px;animation:1s 1 forwards cubic-bezier(.36,-.01,.5,1.38) lightSpeedLeft;animation-delay:0s"><path d="M201.6 286l-31.33 18.09a4.52 4.52 0 000 8l58.44 33.75a5.38 5.38 0 004.82 0l31.33-18.09a4.52 4.52 0 000-8L206.42 286a5.32 5.32 0 00-4.82 0z" style="transform-origin:217.565px 315.916px" id="el0d0fy36vwqu" class="animable" fill="#66fcf1"/><path d="M201.6 286l-31.33 18.09a4.52 4.52 0 000 8l58.44 33.75a5.38 5.38 0 004.82 0l31.33-18.09a4.52 4.52 0 000-8L206.42 286a5.32 5.32 0 00-4.82 0z" style="transform-origin:217.565px 315.916px" id="elzybj9xovsh" class="animable" fill="#66fcf1"/><path d="M201.6 286l-31.33 18.09a4.52 4.52 0 000 8l58.44 33.75a5.38 5.38 0 004.82 0l31.33-18.09a4.52 4.52 0 000-8L206.42 286a5.32 5.32 0 00-4.82 0z" style="transform-origin:217.565px 315.916px" id="elka0jafqqkqk" class="animable" fill="#66fcf1"/><path d="M201.6 286l-31.33 18.09a4.52 4.52 0 000 8l58.44 33.75a5.38 5.38 0 004.82 0l31.33-18.09a4.52 4.52 0 000-8L206.42 286a5.32 5.32 0 00-4.82 0z" style="transform-origin:217.565px 315.916px" class="animable" opacity=".1" id="elgpjof5hpn1"/><path d="M231.12 300.25L206.42 286a5.32 5.32 0 00-4.82 0l-31.33 18.09a4.52 4.52 0 000 8l58.44 33.75a5 5 0 002.41.57z" style="transform-origin:199.487px 315.917px" id="el1y7glvmdw1d" class="animable" fill="#66fcf1"/><path d="M228.72 340.6l-58.45-33.75c-1.33-.76-1.33-2 0-2.78L201.6 286a5.32 5.32 0 014.82 0l58.44 33.75c1.33.76 1.33 2 0 2.78l-31.33 18.07a5.3 5.3 0 01-4.81 0z" style="transform-origin:217.565px 313.3px" id="el3k04kzskzqm" class="animable" fill="#66fcf1"/><path d="M228.72 340.6l-58.45-33.75c-1.33-.76-1.33-2 0-2.78L201.6 286a5.32 5.32 0 014.82 0l58.44 33.75c1.33.76 1.33 2 0 2.78l-31.33 18.07a5.3 5.3 0 01-4.81 0z" style="transform-origin:217.565px 313.3px" id="elp6y91prk6nl" class="animable" fill="#66fcf1"/><path d="M228.72 340.6l-58.45-33.75c-1.33-.76-1.33-2 0-2.78L201.6 286a5.32 5.32 0 014.82 0l58.44 33.75c1.33.76 1.33 2 0 2.78l-31.33 18.07a5.3 5.3 0 01-4.81 0z" style="transform-origin:217.565px 313.3px" id="el6i095ozblod" class="animable" fill="#66fcf1"/><path d="M228.72 340.6l-58.45-33.75c-1.33-.76-1.33-2 0-2.78L201.6 286a5.32 5.32 0 014.82 0l58.44 33.75c1.33.76 1.33 2 0 2.78l-31.33 18.07a5.3 5.3 0 01-4.81 0z" style="transform-origin:217.565px 313.3px" class="animable" fill="#fff" opacity=".2" id="elqm75uo2bqcc"/><path d="M177.86 307.52l29.71-17.15a2.1 2.1 0 011.92 0L257.27 318a.59.59 0 010 1.11l-29.7 17.15a2.12 2.12 0 01-1.93 0l-47.78-27.58a.59.59 0 010-1.16z" style="transform-origin:217.519px 313.315px" id="elnw21tcu9qac" class="animable" fill="#fff"/><path d="M247.26 330.41a3.39 3.39 0 01-3.1 0c-.86-.49-.86-1.29 0-1.79a3.45 3.45 0 013.1 0c.86.5.86 1.3 0 1.79z" style="transform-origin:245.71px 329.519px" id="elwt5lbrf451k" class="animable" fill="#66fcf1"/><path d="M247.26 330.41a3.39 3.39 0 01-3.1 0c-.86-.49-.86-1.29 0-1.79a3.45 3.45 0 013.1 0c.86.5.86 1.3 0 1.79z" style="transform-origin:245.71px 329.519px" class="animable" opacity=".1" id="el5xgppk9oz55"/><path d="M188.38 296.42a.83.83 0 01-.78 0 .24.24 0 010-.45.83.83 0 01.78 0 .24.24 0 010 .45z" style="transform-origin:187.99px 296.195px" id="elwdf75r66npd" class="animable" fill="#66fcf1"/><path d="M187.13 300a1.76 1.76 0 01-1.58 0 .48.48 0 010-.91 1.76 1.76 0 011.58 0 .48.48 0 010 .91z" style="transform-origin:186.34px 299.545px" id="el0i16x6i17upc" class="animable" fill="#66fcf1"/><path d="M188.24 298.41c-.29-.17-.28-.45 0-.63l5.18-3a1.24 1.24 0 011.08 0c.29.17.27.45 0 .63l-5.17 3a1.21 1.21 0 01-1.09 0z" style="transform-origin:191.368px 296.598px" id="elua3inzwalg" class="animable" fill="#66fcf1"/><path d="M188.38 296a.24.24 0 010 .45.83.83 0 01-.78 0" style="transform-origin:188.068px 296.274px" id="elatf05223j5i" class="animable" fill="#66fcf1"/><path d="M187.13 300a1.76 1.76 0 01-1.58 0 .48.48 0 010-.91 1.76 1.76 0 011.58 0 .48.48 0 010 .91z" style="transform-origin:186.34px 299.545px" id="elomhd1cj6gu" class="animable" fill="#66fcf1"/><path d="M188.24 298.41c-.29-.17-.28-.45 0-.63l5.18-3a1.24 1.24 0 011.08 0c.29.17.27.45 0 .63l-5.17 3a1.21 1.21 0 01-1.09 0z" style="transform-origin:191.368px 296.598px" id="el1rvkcvgw37a" class="animable" fill="#66fcf1"/><path d="M188.38 296a.24.24 0 010 .45.83.83 0 01-.78 0" style="transform-origin:188.068px 296.274px" id="eld3phwp69u0v" class="animable" fill="#66fcf1"/><path d="M187.13 300a1.76 1.76 0 01-1.58 0 .48.48 0 010-.91 1.76 1.76 0 011.58 0 .48.48 0 010 .91z" style="transform-origin:186.34px 299.545px" id="elcfhj419zhy7" class="animable" fill="#66fcf1"/><path d="M188.24 298.41c-.29-.17-.28-.45 0-.63l5.18-3a1.24 1.24 0 011.08 0c.29.17.27.45 0 .63l-5.17 3a1.21 1.21 0 01-1.09 0z" style="transform-origin:191.368px 296.598px" id="el8wm6p6bok0d" class="animable" fill="#66fcf1"/><path d="M188.38 296.42a.83.83 0 01-.78 0 .24.24 0 010-.45.83.83 0 01.78 0 .24.24 0 010 .45z" style="transform-origin:187.99px 296.195px" class="animable" opacity=".1" id="el712mlaygc97"/><path d="M188.38 296a.24.24 0 010 .45.83.83 0 01-.78 0" style="transform-origin:188.068px 296.274px" class="animable" opacity=".1" id="el8qtjmbuswvo"/><path d="M187.13 300a1.76 1.76 0 01-1.58 0 .48.48 0 010-.91 1.76 1.76 0 011.58 0 .48.48 0 010 .91z" style="transform-origin:186.34px 299.545px" class="animable" opacity=".1" id="elnro9w6bkhdl"/><path d="M188.24 298.41c-.29-.17-.28-.45 0-.63l5.18-3a1.24 1.24 0 011.08 0c.29.17.27.45 0 .63l-5.17 3a1.21 1.21 0 01-1.09 0z" style="transform-origin:191.368px 296.598px" class="animable" opacity=".1" id="el35f4ov3w5vn"/></g><g id="freepik--Tablet--inject-117" class="animable" style="transform-origin:393.825px 318.505px;animation:1s 1 forwards cubic-bezier(.36,-.01,.5,1.38) zoomOut;animation-delay:0s"><path d="M409.77 278.15l49.41 28.52a4.52 4.52 0 010 8l-76.53 44.19a5.32 5.32 0 01-4.82 0l-49.4-28.53a4.52 4.52 0 010-8L405 278.15a5.3 5.3 0 014.77 0z" style="transform-origin:393.805px 318.51px" id="el2yjf2bziwt6" class="animable" fill="#66fcf1"/><path d="M409.77 278.15l49.41 28.52a4.52 4.52 0 010 8l-76.53 44.19a5.32 5.32 0 01-4.82 0l-49.4-28.53a4.52 4.52 0 010-8L405 278.15a5.3 5.3 0 014.77 0z" style="transform-origin:393.805px 318.51px" id="elcvws6i7zr1w" class="animable" fill="#66fcf1"/><path d="M409.77 278.15l49.41 28.52a4.52 4.52 0 010 8l-76.53 44.19a5.32 5.32 0 01-4.82 0l-49.4-28.53a4.52 4.52 0 010-8L405 278.15a5.3 5.3 0 014.77 0z" style="transform-origin:393.805px 318.51px" class="animable" opacity=".2" id="elrq07q0kokn"/><path d="M362.17 302.85l42.83-24.7a5.3 5.3 0 014.81 0l49.41 28.52a4.52 4.52 0 010 8l-76.53 44.19a5 5 0 01-2.41.57v-9.62z" style="transform-origin:411.903px 318.502px" id="elgbyrfgfgq4w" class="animable" fill="#66fcf1"/><path d="M382.65 353.64l76.53-44.19c1.33-.76 1.33-2 0-2.78l-49.41-28.52a5.3 5.3 0 00-4.81 0l-76.53 44.19c-1.33.76-1.33 2 0 2.78l49.4 28.52a5.32 5.32 0 004.82 0z" style="transform-origin:393.805px 315.895px" id="elnl1paldh2a" class="animable" fill="#66fcf1"/><path d="M382.65 353.64l76.53-44.19c1.33-.76 1.33-2 0-2.78l-49.41-28.52a5.3 5.3 0 00-4.81 0l-76.53 44.19c-1.33.76-1.33 2 0 2.78l49.4 28.52a5.32 5.32 0 004.82 0z" style="transform-origin:393.805px 315.895px" class="animable" opacity=".1" id="eltbyy57q18ba"/><path d="M451.59 310.12l-47.78-27.59a2.18 2.18 0 00-1.93 0l-65.86 38a.59.59 0 000 1.11l47.78 27.59a2.18 2.18 0 001.93 0l65.86-38a.59.59 0 000-1.11z" style="transform-origin:393.805px 315.88px" id="elruxkyc7qkvc" class="animable" fill="#fafafa"/><path d="M355.22 338.2a3.39 3.39 0 003.1 0 .94.94 0 000-1.79 3.39 3.39 0 00-3.1 0 .94.94 0 000 1.79z" style="transform-origin:356.77px 337.305px" id="el6onbltsu0gd" class="animable" fill="#66fcf1"/><g style="transform-origin:356.77px 337.305px" class="animable" opacity=".3" id="elixv3sbrb4id"><path d="M355.22 338.2a3.39 3.39 0 003.1 0 .94.94 0 000-1.79 3.39 3.39 0 00-3.1 0 .94.94 0 000 1.79z" id="elu2xjne148tg" class="animable" style="transform-origin:356.77px 337.305px"/></g><path d="M431.78 294a.85.85 0 00.79 0 .24.24 0 000-.45.85.85 0 00-.79 0 .24.24 0 000 .45z" style="transform-origin:432.175px 293.775px" id="elvdim5n7id5" class="animable" fill="#66fcf1"/><path d="M433 297.6a1.74 1.74 0 001.57 0 .48.48 0 000-.91 1.74 1.74 0 00-1.57 0 .48.48 0 000 .91z" style="transform-origin:433.785px 297.145px" id="el3nr806gkeym" class="animable" fill="#66fcf1"/><path d="M431.93 296c.29-.17.27-.45 0-.63l-5.18-3a1.18 1.18 0 00-1.08 0c-.29.16-.28.44 0 .62l5.18 3a1.18 1.18 0 001.08.01z" style="transform-origin:428.798px 294.183px" id="elfkadbmrb86s" class="animable" fill="#66fcf1"/><g style="transform-origin:430.177px 295.013px" class="animable" opacity=".3" id="eloc5oh3c9fo"><path d="M431.78 294a.85.85 0 00.79 0 .24.24 0 000-.45.85.85 0 00-.79 0 .24.24 0 000 .45z" id="el2xxkt9rjyo7" class="animable" style="transform-origin:432.175px 293.775px"/><path d="M433 297.6a1.74 1.74 0 001.57 0 .48.48 0 000-.91 1.74 1.74 0 00-1.57 0 .48.48 0 000 .91z" id="elnw87tz4444j" class="animable" style="transform-origin:433.785px 297.145px"/><path d="M431.93 296c.29-.17.27-.45 0-.63l-5.18-3a1.18 1.18 0 00-1.08 0c-.29.16-.28.44 0 .62l5.18 3a1.18 1.18 0 001.08.01z" id="elz0gw49d3dy" class="animable" style="transform-origin:428.798px 294.183px"/></g></g><g id="freepik--Laptop--inject-117" class="animable" style="transform-origin:147.586px 204.997px;animation:1s 1 forwards cubic-bezier(.36,-.01,.5,1.38) slideRight;animation-delay:0s"><path d="M160.93 199.89l-81 46.79a4.52 4.52 0 000 8l58.45 33.74a5.32 5.32 0 004.82 0l81-46.79a4.53 4.53 0 000-8l-58.45-33.74a5.32 5.32 0 00-4.82 0z" style="transform-origin:152.059px 244.155px" id="elu5ikfnuns4" class="animable" fill="#66fcf1"/><path d="M160.93 199.89l-81 46.79a4.52 4.52 0 000 8l58.45 33.74a5.32 5.32 0 004.82 0l81-46.79a4.53 4.53 0 000-8l-58.45-33.74a5.32 5.32 0 00-4.82 0z" style="transform-origin:152.059px 244.155px" class="animable" opacity=".2" id="elhtea0dafoqq"/><path d="M140.75 211.54l-60.86 35.14a4.52 4.52 0 000 8l58.45 33.74a5 5 0 002.41.58z" style="transform-origin:109.112px 250.27px" id="elexib8s7xrb" class="animable" fill="#66fcf1"/><path d="M140.75 211.54l-60.86 35.14a4.52 4.52 0 000 8l58.45 33.74a5 5 0 002.41.58z" style="transform-origin:109.112px 250.27px" class="animable" opacity=".1" id="elcts5v1un7r4"/><path d="M79.89 246.68l81-46.79a5.32 5.32 0 014.82 0l58.45 33.74c1.33.77 1.33 2 0 2.78l-81 46.79a5.32 5.32 0 01-4.82 0l-58.45-33.74c-1.33-.77-1.33-2.02 0-2.78z" style="transform-origin:152.025px 241.545px" id="eltr296gu2ttb" class="animable" fill="#66fcf1"/><path d="M118.15 198.5l-49-28.27a4.62 4.62 0 00-.58 2.35l4.19 70.1a5.57 5.57 0 002.43 4.08 5.17 5.17 0 004.66-.08L119 224.11z" style="transform-origin:93.7844px 208.753px" id="elaothgd26xnl" class="animable" fill="#66fcf1"/><path d="M118.15 198.5l-49-28.27a4.62 4.62 0 00-.58 2.35l4.19 70.1a5.57 5.57 0 002.43 4.08 5.17 5.17 0 004.66-.08L119 224.11z" style="transform-origin:93.7844px 208.753px" class="animable" opacity=".2" id="el8al8zja5qya"/><path d="M88.93 246.68l72-41.57a5.32 5.32 0 014.82 0l2 1.13c1.33.77 1.33 2 0 2.78l-72 41.57a5.32 5.32 0 01-4.82 0l-2-1.13c-1.33-.77-1.33-2.02 0-2.78z" style="transform-origin:128.34px 227.85px" id="elxmg62g8a2ym" class="animable" fill="#66fcf1"/><path d="M88.93 246.68l72-41.57a5.32 5.32 0 014.82 0l2 1.13c1.33.77 1.33 2 0 2.78l-72 41.57a5.32 5.32 0 01-4.82 0l-2-1.13c-1.33-.77-1.33-2.02 0-2.78z" style="transform-origin:128.34px 227.85px" class="animable" opacity=".1" id="el4me80kqau8f"/><path d="M98 251.89l72-41.57a5.38 5.38 0 014.82 0l22.29 12.88c1.33.76 1.33 2 0 2.78l-72 41.57a5.32 5.32 0 01-4.82 0L98 254.67c-1.36-.76-1.36-2.01 0-2.78z" style="transform-origin:147.544px 238.939px" id="el1p8690foxyx" class="animable" fill="#66fcf1"/><path d="M98 251.89l72-41.57a5.38 5.38 0 014.82 0l22.29 12.88c1.33.76 1.33 2 0 2.78l-72 41.57a5.32 5.32 0 01-4.82 0L98 254.67c-1.36-.76-1.36-2.01 0-2.78z" style="transform-origin:147.544px 238.939px" class="animable" opacity=".1" id="elme0ibbcwgq"/><path d="M156.71 254.5L179 241.63a5.32 5.32 0 014.82 0l8.73 5.05c1.33.76 1.33 2 0 2.78l-22.29 12.87a5.32 5.32 0 01-4.82 0l-8.74-5.05c-1.32-.76-1.32-2.01.01-2.78z" style="transform-origin:174.629px 251.98px" id="eltn0nxxqlfz" class="animable" fill="#66fcf1"/><path d="M156.71 254.5L179 241.63a5.32 5.32 0 014.82 0l8.73 5.05c1.33.76 1.33 2 0 2.78l-22.29 12.87a5.32 5.32 0 01-4.82 0l-8.74-5.05c-1.32-.76-1.32-2.01.01-2.78z" style="transform-origin:174.629px 251.98px" class="animable" opacity=".1" id="ell4oraggm2u"/><path d="M163.61 229.39l2.24-1.3c.1-.06.09-.15 0-.21l-2.85-1.62a.42.42 0 00-.38 0l-2.24 1.29c-.1.06-.08.16 0 .22l2.79 1.61a.44.44 0 00.44.01zm-4.93-5.39l-2.25 1.29c-.09.06-.08.15 0 .22l2.79 1.61a.4.4 0 00.37 0l2.25-1.29c.09-.06.08-.15 0-.22l-2.79-1.61a.4.4 0 00-.37 0zm-7.25 4.18l-3.8 2.2c-.1 0-.09.15 0 .21l2.79 1.61a.43.43 0 00.38 0l3.8-2.2c.09-.05.08-.15 0-.21l-2.79-1.61a.41.41 0 00-.38-.05zm4-2.29l-2.25 1.3c-.09.05-.08.15 0 .21L156 229a.41.41 0 00.37 0l2.25-1.3c.09-.05.08-.15 0-.21l-2.79-1.61a.41.41 0 00-.43-.04zm-8.81 5.08l-2.24 1.3c-.1.05-.09.15 0 .21l2.79 1.62a.42.42 0 00.38 0l2.24-1.29c.1-.06.08-.16 0-.22l-2.79-1.65a.44.44 0 00-.41-.02zm-3.28 1.9l-2.24 1.29c-.1.06-.09.16 0 .22l2.79 1.61a.46.46 0 00.38 0l2.24-1.3c.1-.06.08-.15 0-.22l-2.79-1.61a.4.4 0 00-.41-.04zm11 6.54l2.25-1.29c.09-.06.08-.15 0-.22l-2.79-1.61a.4.4 0 00-.37 0l-2.25 1.29c-.09.06-.08.15 0 .22l2.79 1.61a.4.4 0 00.33-.05zm-3.28 1.9l2.25-1.3c.09-.05.08-.15 0-.21l-2.79-1.61a.38.38 0 00-.37 0l-2.25 1.3c-.09.05-.08.15 0 .21l2.79 1.61a.41.41 0 00.31-.05zm-3.28 1.89l2.25-1.29c.09-.06.08-.16 0-.22l-2.86-1.69a.44.44 0 00-.37 0l-2.25 1.3c-.09.05-.08.15 0 .21l2.79 1.62a.4.4 0 00.4.02zm-3.28 1.9l2.25-1.3c.09-.06.08-.15 0-.22l-2.79-1.61a.4.4 0 00-.37 0l-2.25 1.29c-.09.06-.08.15 0 .22l2.79 1.61a.44.44 0 00.33-.04zm15.87-13.77l2.24-1.3c.1 0 .09-.15 0-.21l-2.79-1.61a.43.43 0 00-.38 0l-2.24 1.3c-.1.05-.08.15 0 .21l2.79 1.61a.41.41 0 00.34-.05zm-2.75 6.19l5-2.89c.1-.06.08-.15 0-.22l-6.78-3.91a.4.4 0 00-.37 0l-2.59 1.49c-.09.06-.08.15 0 .22l3.59 2.07c.11.06.12.16 0 .21l-2.07 1.2c-.09.05-.08.15 0 .21l2.79 1.61a.41.41 0 00.39-.04zM140 234.71l-2.24 1.3c-.1.05-.09.15 0 .21l2.79 1.61a.43.43 0 00.38 0l2.24-1.3c.1-.05.08-.15 0-.21l-2.79-1.61a.41.41 0 00-.38 0zm-3.28 1.9l-2.24 1.29c-.1.06-.09.15 0 .22l2.79 1.61a.42.42 0 00.38 0l2.24-1.29c.1-.06.08-.15 0-.22l-2.79-1.61a.4.4 0 00-.35 0zm-15.62 21.68a.4.4 0 00.37 0l2.24-1.29c.1-.06.09-.15 0-.22l-2.79-1.61a.42.42 0 00-.38 0l-2.24 1.29c-.1.06-.08.15 0 .22zm-10.62-6.53l-2.25 1.29c-.09.06-.08.15 0 .22l2.79 1.61a.4.4 0 00.37 0l2.25-1.29c.09-.06.08-.15 0-.22l-2.79-1.61a.4.4 0 00-.34 0zm5.77 4.72a.41.41 0 00.37 0l2.24-1.3c.1 0 .09-.15 0-.21l-2.8-1.61a.41.41 0 00-.37 0l-2.24 1.3c-.1.05-.09.15 0 .21zm10.93 3.13l2.25-1.3c.09-.05.08-.15 0-.21l-2.79-1.61a.41.41 0 00-.37 0l-2.25 1.3c-.09.05-.08.15 0 .21l2.79 1.61a.41.41 0 00.4 0zm-3.65 1.88a.4.4 0 00.37 0l2.25-1.29c.09-.06.08-.16 0-.22l-2.79-1.61a.44.44 0 00-.37 0l-2.25 1.3c-.09.06-.08.15 0 .21zm-9.77-11.63l-2.25 1.3c-.09.05-.08.15 0 .21l2.79 1.62a.4.4 0 00.37 0l2.25-1.3c.09 0 .08-.15 0-.21l-2.79-1.61a.44.44 0 00-.34-.01zm16.4-9.47l-2.25 1.3c-.09.05-.08.15 0 .21l2.79 1.62a.4.4 0 00.37 0l2.25-1.29c.09-.06.08-.16 0-.22l-2.79-1.61a.44.44 0 00-.34-.01zM117.07 248l-2.25 1.3c-.09 0-.08.15 0 .21l2.79 1.61a.41.41 0 00.37 0l2.25-1.3c.09-.05.08-.15 0-.21l-2.79-1.61a.4.4 0 00-.37 0zm16.4-9.47l-2.24 1.3c-.1 0-.09.15 0 .21l2.79 1.61a.41.41 0 00.37 0l2.25-1.3c.09-.05.08-.15 0-.21l-2.79-1.61a.38.38 0 00-.38-.03zm-6.56 3.79l-2.25 1.29c-.09.06-.08.15 0 .22l2.79 1.61a.44.44 0 00.37 0l2.25-1.3c.09-.06.08-.15 0-.22l-2.79-1.61a.4.4 0 00-.37-.02zm-3.28 1.89l-2.25 1.3c-.09.05-.08.15 0 .21l2.79 1.61a.41.41 0 00.37 0l2.25-1.3c.09-.05.08-.15 0-.21L124 244.2a.41.41 0 00-.37-.02zm-3.28 1.9l-2.25 1.29c-.09.06-.08.15 0 .22l2.79 1.61a.4.4 0 00.37 0l2.25-1.29c.09-.06.08-.15 0-.22l-2.79-1.61a.4.4 0 00-.37-.03zm17.55 2.75l2.24-1.29c.1-.06.09-.15 0-.22l-2.79-1.61a.4.4 0 00-.37 0l-2.27 1.26c-.09.06-.08.15 0 .22l2.79 1.61a.4.4 0 00.4 0zm28-29.07l-2.25 1.3c-.09.05-.08.15 0 .21l2.79 1.61a.41.41 0 00.37 0l2.25-1.3c.09 0 .08-.15 0-.21l-2.79-1.61a.38.38 0 00-.34-.03zm-4 2.29l-2.25 1.3c-.09.05-.08.15 0 .21l2.79 1.61a.41.41 0 00.37 0l2.25-1.3c.09 0 .08-.15 0-.21l-2.79-1.61a.41.41 0 00-.27-.03zm7.25-4.18l-2.15 1.26c-.09.06-.08.15 0 .22l2.79 1.61a.4.4 0 00.37 0l2.25-1.29c.09-.06.08-.15 0-.22l-2.79-1.61a.4.4 0 00-.41 0zm-16.48 17.8l2.25-1.3c.09-.06.08-.15 0-.22l-2.79-1.61a.4.4 0 00-.37 0l-2.25 1.29c-.09.06-.08.16 0 .22l2.79 1.61a.44.44 0 00.43-.02zm20.19-19.7a.41.41 0 00-.37 0l-2.25 1.3c-.09 0-.08.15 0 .21l2.79 1.61a.41.41 0 00.37 0l2.25-1.3c.09-.05.08-.15 0-.21zm-31.68 30.95l2.25-1.3c.09 0 .08-.15 0-.21l-2.79-1.61a.41.41 0 00-.37 0L138 245.1c-.09.05-.08.15 0 .21l2.79 1.61a.41.41 0 00.39.02zm40.23-23.23l2.24-1.29c.1-.06.09-.15 0-.22l-2.79-1.61a.42.42 0 00-.38 0l-2.24 1.29c-.1.06-.08.15 0 .22l2.76 1.59a.4.4 0 00.41.01zm-7.27-.4l2.25-1.3c.09-.06.08-.15 0-.22l-2.79-1.61a.4.4 0 00-.37 0l-2.23 1.27c-.09.06-.08.15 0 .22l2.79 1.61a.44.44 0 00.35.02zm2.71-5a.44.44 0 00-.37 0l-2.25 1.3c-.09.05-.08.15 0 .21l2.79 1.62a.4.4 0 00.37 0l2.25-1.29c.09-.06.08-.16 0-.22zm.69-.4l6.78 3.91a.41.41 0 00.37 0l2.24-1.3c.1-.05.09-.15 0-.21l-6.78-3.91a.38.38 0 00-.37 0l-2.25 1.3c-.11.02-.1.12.01.18zm-7.62 4.17l-2.25 1.3c-.09 0-.08.15 0 .21l2.79 1.61a.41.41 0 00.37 0l2.25-1.3c.09-.05.08-.15 0-.21l-2.79-1.61a.41.41 0 00-.37-.03zm-24.69 14.26l-2.23 1.26c-.09.06-.08.15 0 .22l2.79 1.61a.4.4 0 00.37 0l2.25-1.29c.09-.06.08-.15 0-.22l-2.79-1.61a.4.4 0 00-.39 0zm32.53-10.73a.41.41 0 00.37 0l2.24-1.3c.1-.05.09-.15 0-.21l-2.79-1.61a.4.4 0 00-.38 0l-2.24 1.3c-.1 0-.08.15 0 .21zm-29.25 8.83l-2.25 1.3c-.09.05-.08.15 0 .21l2.79 1.61a.41.41 0 00.37 0l2.25-1.3c.09 0 .08-.15 0-.21l-2.79-1.61a.41.41 0 00-.37-.03zm-24.1 22a.41.41 0 00.37 0l2.24-1.3c.1-.05.09-.15 0-.21l-2.79-1.61a.43.43 0 00-.38 0l-2.24 1.3c-.1.05-.08.15 0 .21zm-5.41-4.98l-2.24 1.29c-.1.06-.08.15 0 .22l2.79 1.61a.4.4 0 00.37 0l2.24-1.29c.1-.06.09-.15 0-.22l-2.79-1.61a.42.42 0 00-.37 0zm9.08 3l2.24-1.29c.1-.06.09-.15 0-.22l-2.79-1.61a.42.42 0 00-.38 0l-2.24 1.29c-.1.06-.08.15 0 .22l2.79 1.61a.4.4 0 00.36.04zm3.28-1.89l2.24-1.29c.1-.06.09-.16 0-.22l-2.79-1.61a.46.46 0 00-.38 0l-2.24 1.3c-.1.05-.08.15 0 .21l2.79 1.62a.4.4 0 00.36.03zm3.28-1.89l2.24-1.3c.1-.05.09-.15 0-.21l-2.79-1.62a.42.42 0 00-.38 0l-2.24 1.3c-.1.05-.08.15 0 .21l2.79 1.61a.44.44 0 00.36.05zm-12.36-1.16l-2.24 1.3c-.1 0-.08.15 0 .21l2.79 1.62a.4.4 0 00.37 0l2.24-1.29c.1-.06.09-.16 0-.22l-2.79-1.61a.46.46 0 00-.39.03zm3.28-1.89L123.3 249c-.1.05-.08.15 0 .21l2.79 1.61a.41.41 0 00.37 0l2.24-1.3c.1-.05.09-.15 0-.21l-2.79-1.61a.4.4 0 00-.37-.02zm13.13-7.58l-2.25 1.3c-.09 0-.08.15 0 .21l2.79 1.62a.4.4 0 00.37 0l2.25-1.29c.09-.06.08-.16 0-.22l-2.85-1.56a.44.44 0 00-.33-.02zm-3.28 1.9l-2.25 1.29c-.09.06-.08.16 0 .22l2.79 1.61a.44.44 0 00.37 0l2.24-1.3c.1-.06.09-.15 0-.22l-2.8-1.56a.4.4 0 00-.37 0zm6.56-3.79l-2.25 1.3c-.09.05-.08.15 0 .21l2.79 1.61a.41.41 0 00.37 0l2.25-1.3c.09-.05.08-.15 0-.21l-2.79-1.61a.41.41 0 00-.34.04zm-13.13 7.58l-2.24 1.29c-.1.06-.08.15 0 .22l2.79 1.61a.4.4 0 00.37 0l2.24-1.29c.1-.06.09-.15 0-.22l-2.79-1.61a.42.42 0 00-.39.04zm3.28-1.9l-2.24 1.3c-.1.05-.08.15 0 .21l2.79 1.61a.41.41 0 00.37 0l2.24-1.3c.1 0 .09-.15 0-.21l-2.79-1.61a.43.43 0 00-.39.04zm-1.61 13.82l2.25-1.29c.09-.06.08-.15 0-.22l-2.79-1.61a.4.4 0 00-.37 0l-2.25 1.29c-.09.06-.08.15 0 .22l2.79 1.61a.4.4 0 00.35.04zm-20.1-2.43l-2.79-1.61a.41.41 0 00-.37 0L105 255c-.09.05-.08.15 0 .21l2.79 1.61a.41.41 0 00.37 0l2.25-1.3c.1-.08.09-.18-.02-.24zm5.2 1.6l-2.8-1.61a.4.4 0 00-.37 0l-3.45 2c-.1.05-.08.15 0 .21l2.79 1.62a.4.4 0 00.37 0l3.45-2c.11-.06.1-.06-.01-.18zm-9.52-4.7l-2.79-1.61a.4.4 0 00-.37 0l-2.77 1.59c-.09.06-.08.15 0 .22L103 254a.4.4 0 00.37 0l2.77-1.59c.05-.07.04-.16-.07-.23zm2.12-1.22a.41.41 0 00.37 0l2.24-1.3c.1-.05.09-.15 0-.21l-2.8-1.61a.41.41 0 00-.37 0l-2.24 1.3c-.1.05-.09.15 0 .21zm12.25 7.73l-2.8-1.62a.4.4 0 00-.37 0l-4.29 2.52c-.1.06-.09.15 0 .22l2.79 1.61a.42.42 0 00.38 0l4.31-2.49c.08-.04.07-.14-.04-.2zm2.43 3.2l-2.79-1.62a.4.4 0 00-.37 0l-2.77 1.59c-.09.06-.08.15 0 .22l2.79 1.61a.4.4 0 00.37 0l2.77-1.59c.11-.06.11-.06-.02-.17zm9.71-25a.44.44 0 00.37 0l2.24-1.3c.1 0 .09-.15 0-.21l-2.79-1.62a.42.42 0 00-.38 0l-2.24 1.29c-.1.06-.08.16 0 .22zm-6.6 3.82a.4.4 0 00.37 0l2.24-1.29c.1-.06.09-.15 0-.22l-2.8-1.61a.4.4 0 00-.37 0l-2.24 1.29c-.1.06-.09.15 0 .22zm-14.55 8.4a.4.4 0 00.37 0l2.24-1.29c.1-.06.09-.15 0-.22l-2.79-1.56a.42.42 0 00-.38 0l-2.24 1.29c-.1.06-.08.15 0 .22zm17.83-10.3a.38.38 0 00.37 0l2.24-1.3c.1-.05.09-.15 0-.21l-2.8-1.61a.41.41 0 00-.37 0l-2.24 1.3c-.1.05-.09.15 0 .21zm-6.57 3.79a.43.43 0 00.38 0l2.24-1.3c.1-.05.08-.15 0-.21l-2.79-1.61a.41.41 0 00-.37 0l-2.24 1.3c-.1 0-.09.15 0 .21zm2 19.62a.43.43 0 00-.38 0l-3.45 2c-.09 0-.08.15 0 .21l2.79 1.61a.44.44 0 00.37 0l3.45-2c.1-.05.09-.15 0-.21zm-6.71-16.9a.44.44 0 00.37 0l2.24-1.3c.1-.06.09-.15 0-.21l-2.79-1.62a.42.42 0 00-.38 0l-2.24 1.29c-.1.06-.08.16 0 .22zm-3.28 1.89a.41.41 0 00.37 0l2.24-1.3c.1 0 .09-.15 0-.21l-2.79-1.61a.43.43 0 00-.38 0l-2.24 1.3c-.1.05-.08.15 0 .21zm70.78-20.08a.44.44 0 00-.37 0l-5.53 3.19c-.09.06-.08.15 0 .22l2.79 1.61a.44.44 0 00.37 0l5.53-3.19c.09-.06.08-.16 0-.22zm-7.25 4.19a.41.41 0 00-.37 0l-2.25 1.3c-.09.05-.08.15 0 .21l2.79 1.61a.41.41 0 00.37 0l2.25-1.3c.09 0 .08-.15 0-.21zm-44.51 24.54l2.25-1.3c.09-.05.08-.15 0-.21l-2.79-1.61a.41.41 0 00-.37 0l-2.25 1.3c-.09.05-.08.15 0 .21l2.79 1.61a.38.38 0 00.4 0zm37.95-20.76a.4.4 0 00-.37 0l-2.25 1.29c-.09.06-.08.16 0 .22l2.79 1.61a.44.44 0 00.37 0l2.25-1.3c.09 0 .08-.15 0-.21zm17.09-9.86a.38.38 0 00-.37 0l-2.25 1.3c-.09.05-.08.15 0 .21l2.84 1.59a.41.41 0 00.37 0l2.25-1.3c.09-.05.08-.15 0-.21zm6.07-.29L188.1 221a.44.44 0 00-.37 0l-2.24 1.3c-.1.05-.09.15 0 .21l6.78 3.92a.4.4 0 00.37 0l2.25-1.29c.11-.07.11-.14-.01-.23zm-35.42 17.23a.4.4 0 00-.37 0l-2.77 1.59c-.09.06-.08.15 0 .22l2.79 1.61a.4.4 0 00.37 0l2.77-1.59c.09-.06.08-.15 0-.22zm8.29-4.78a.43.43 0 00-.38 0l-3.45 2c-.09.06-.08.16 0 .22l2.79 1.61a.44.44 0 00.37 0l3.45-2c.1-.05.09-.15 0-.21zm-15.89 9.17a.41.41 0 00-.37 0L133 257.18c-.1.05-.09.15 0 .21l2.79 1.61a.43.43 0 00.38 0l18.47-10.67c.1 0 .08-.15 0-.21zm-19.51 11.26a.4.4 0 00-.37 0l-2.76 1.59c-.1.06-.09.15 0 .22l2.8 1.61a.4.4 0 00.37 0l2.76-1.59c.1-.06.08-.15 0-.22zm23.31-13.46a.4.4 0 00-.37 0l-2.76 1.59c-.1.06-.09.15 0 .22l2.79 1.61a.46.46 0 00.38 0l2.76-1.6c.09 0 .08-.15 0-.21zM128.55 260a.4.4 0 00-.37 0l-2.76 1.59c-.1.06-.08.15 0 .22l2.79 1.61a.44.44 0 00.37 0l2.76-1.6c.1-.05.09-.15 0-.21zm34.71-20a.41.41 0 00-.37 0l-2.77 1.6c-.09.05-.08.15 0 .21l2.79 1.61a.41.41 0 00.37 0l2.77-1.6c.09-.05.08-.15 0-.21zm11.74-6.83a.44.44 0 00-.37 0l-2.25 1.3c-.09.06-.08.15 0 .21l2.79 1.62a.4.4 0 00.37 0l2.25-1.29c.09-.06.08-.16 0-.22zm7.12-5.26l2.24-1.3c.1-.05.08-.15 0-.21l-2.79-1.61a.41.41 0 00-.37 0l-2.24 1.3c-.1.05-.09.15 0 .21l2.79 1.61a.43.43 0 00.37 0zm-15.23-.42l2.24-1.29c.1-.06.09-.16 0-.22l-2.79-1.61a.46.46 0 00-.38 0l-2.24 1.3c-.1.06-.08.15 0 .21l2.79 1.62a.4.4 0 00.38-.01zM160 240.67l6.56-3.79c.09 0 .08-.15 0-.21l-2.79-1.62a.4.4 0 00-.37 0l-6.56 3.79c-.1 0-.09.15 0 .21l2.79 1.61a.43.43 0 00.37.01zm18.44-10.88a.42.42 0 00.38 0l2.24-1.29c.1-.06.08-.15 0-.22l-2.79-1.61a.4.4 0 00-.37 0l-2.25 1.33c-.1.06-.09.15 0 .22zm-3.61-2.29l2.24-1.29c.1-.06.09-.16 0-.22l-2.8-1.61a.44.44 0 00-.37 0l-2.24 1.3c-.1.05-.09.15 0 .21l2.79 1.62a.4.4 0 00.4-.01zm-18.11 15.06l2.24-1.29c.1-.06.08-.15 0-.22l-2.79-1.61a.44.44 0 00-.37 0l-2.24 1.3c-.1.06-.09.15 0 .22l2.79 1.61a.42.42 0 00.39-.01zm14.49-8.56a.38.38 0 00.37 0l2.25-1.3c.09-.05.08-.15 0-.21l-2.83-1.62a.41.41 0 00-.37 0l-2.25 1.3c-.09 0-.08.15 0 .21zm-30.88 18l2.25-1.29c.09-.06.08-.15 0-.22l-2.79-1.61a.44.44 0 00-.37 0l-2.25 1.3c-.09.06-.08.15 0 .22L140 252a.4.4 0 00.33 0zm3.28-1.89l2.25-1.3c.09-.05.08-.15 0-.21L143 247a.41.41 0 00-.37 0l-2.25 1.3c-.09 0-.08.15 0 .21l2.79 1.61a.41.41 0 00.44.02zm-6.56 3.79l2.25-1.3c.09 0 .08-.15 0-.21l-2.79-1.62a.4.4 0 00-.37 0l-2.25 1.29c-.09.06-.08.16 0 .22l2.79 1.61a.44.44 0 00.37.04zm13.13-7.58l2.24-1.3c.09-.05.08-.15 0-.21l-2.79-1.61a.41.41 0 00-.37 0l-2.24 1.3c-.1.05-.09.15 0 .21l2.79 1.61a.4.4 0 00.37.03zm-3.29 1.89l2.25-1.29c.09-.06.08-.15 0-.22l-2.79-1.61a.4.4 0 00-.37 0l-2.25 1.29c-.09.06-.08.15 0 .22l2.79 1.61a.4.4 0 00.37.03zm6.57-3.78l2.24-1.3c.1 0 .08-.15 0-.21l-2.79-1.62a.4.4 0 00-.37 0l-2.24 1.29c-.1.06-.09.16 0 .22l2.79 1.61a.46.46 0 00.37.04zm13.74-28.75a.4.4 0 00.37 0l2.25-1.29c.09-.06.08-.15 0-.22l-.74-.43a.42.42 0 00-.38 0l-2.24 1.3c-.1.05-.08.15 0 .21zm-16.07 10.46a.4.4 0 00.37 0l2.25-1.29c.09-.06.08-.15 0-.22l-2.79-1.61a.4.4 0 00-.37 0l-2.25 1.29c-.09.06-.08.15 0 .22zm6.56-3.79a.44.44 0 00.37 0l2.25-1.3c.09 0 .08-.15 0-.21l-2.79-1.62a.4.4 0 00-.37 0l-2.25 1.29c-.09.06-.08.16 0 .22zm-10.56 6.1a.44.44 0 00.37 0l2.24-1.3c.1 0 .08-.15 0-.21l-2.79-1.62a.4.4 0 00-.37 0l-2.24 1.29c-.1.06-.09.16 0 .22zm7.28-4.21a.38.38 0 00.37 0L157 223c.09-.05.08-.15 0-.21l-2.79-1.61a.41.41 0 00-.37 0l-2.25 1.3c-.09.05-.08.15 0 .21zm-13.85 8a.42.42 0 00.38 0l2.24-1.29c.1-.06.08-.15 0-.22l-2.79-1.61a.4.4 0 00-.37 0l-2.24 1.29c-.1.06-.09.15 0 .22zm3.28-1.89a.42.42 0 00.38 0l2.24-1.3c.1-.05.08-.15 0-.21l-2.79-1.61a.41.41 0 00-.37 0l-2.24 1.3c-.1 0-.09.15 0 .21zm16.8-10.88a.4.4 0 00.37 0l2.24-1.29c.1-.06.09-.16 0-.22l-.74-.43a.42.42 0 00-.38 0l-2.24 1.29c-.1.06-.08.15 0 .22zm9.84-5.69a.38.38 0 00.37 0l2.25-1.3c.09-.05.08-.15 0-.21l-.74-.43a.42.42 0 00-.38 0l-2.24 1.29c-.1.06-.08.15 0 .22zm5.86 3.39a.44.44 0 00.37 0l2.25-1.3c.09-.06.08-.15 0-.22l-2.79-1.61a.4.4 0 00-.37 0l-2.25 1.29c-.09.06-.08.15 0 .22zm9.06 8.83l2.24-1.3c.1-.06.08-.15 0-.22l-2.79-1.61a.4.4 0 00-.37 0l-2.24 1.29c-.1.06-.09.15 0 .22L185 226a.46.46 0 00.4 0zm-21.48-8.42a.41.41 0 00.37 0l2.25-1.3c.09 0 .08-.15 0-.21l-.74-.43a.43.43 0 00-.38 0l-2.24 1.3c-.1 0-.08.15 0 .21zm-26.64 16.56a.43.43 0 00.38 0l2.24-1.3c.1 0 .08-.15 0-.21l-2.79-1.61a.41.41 0 00-.37 0l-2.24 1.3c-.1 0-.09.15 0 .21z" style="transform-origin:147.534px 238.918px" id="el4bmccfw9kdc" class="animable" fill="#66fcf1"/><path d="M75.23 246.76a5.57 5.57 0 01-2.43-4.08l-4.19-70.1A5 5 0 0171 168.3l81-46.79a5.11 5.11 0 014.48 0 5.61 5.61 0 012.43 4.09l4.19 70.1a5 5 0 01-2.25 4.17l-81 46.79a5.17 5.17 0 01-4.62.1z" style="transform-origin:115.855px 184.125px" id="eldpyaen420rk" class="animable" fill="#66fcf1"/><path d="M75.23 246.76a5.57 5.57 0 01-2.43-4.08l-4.19-70.1A5 5 0 0171 168.3l81-46.79a5.11 5.11 0 014.48 0 5.61 5.61 0 012.43 4.09l4.19 70.1a5 5 0 01-2.25 4.17l-81 46.79a5.17 5.17 0 01-4.62.1z" style="transform-origin:115.855px 184.125px" class="animable" fill="#fff" opacity=".4" id="elqvumhgc6z5f"/><path d="M75.37 171l81-46.79a1.58 1.58 0 012.58 1.39l4.19 70.1a5 5 0 01-2.25 4.17l-81 46.79a1.58 1.58 0 01-2.57-1.39l-4.19-70.11a4.92 4.92 0 012.24-4.16z" style="transform-origin:118.135px 185.43px" id="el2oosw66mha6" class="animable" fill="#66fcf1"/><path d="M77.29 172.69l77.79-44.91a1.26 1.26 0 012.06 1.11l3.65 61.11a4 4 0 01-1.79 3.33l-77.19 44.58a1.28 1.28 0 01-2.08-1.11L75.52 176a3.9 3.9 0 011.77-3.31z" style="transform-origin:118.155px 182.841px" id="elhjwz1w98by4" class="animable" fill="#fff"/></g><g id="freepik--Computer--inject-117" class="animable" style="transform-origin:305.784px 206.301px;animation:1s 1 forwards cubic-bezier(.36,-.01,.5,1.38) slideRight;animation-delay:0s"><path d="M294.4 242.85l10.37-6a5.57 5.57 0 002.49-5.47l-3.82-19.86 4.52-2.61 22.58 18.27c.3 1.59 7.39 15.43 5.22 23.1-1.92 6.76-13 7.49-14.26 8.2l-27.1-10.43z" style="transform-origin:315.286px 233.695px" id="elkhzz5idyl5p" class="animable" fill="#66fcf1"/><path d="M321.5 258.5l10.36-6a5.56 5.56 0 002.5-5.47l-3.82-19.85 4.51-2.61 4.37 22.71a8.39 8.39 0 01-3.77 8.25l-14.15 8.17z" style="transform-origin:330.502px 244.135px" id="el24h0cws9thf" class="animable" fill="#66fcf1"/><path d="M321.5 258.5l10.36-6a5.56 5.56 0 002.5-5.47l-3.82-19.85 4.51-2.61 4.37 22.71a8.39 8.39 0 01-3.77 8.25l-14.15 8.17z" style="transform-origin:330.502px 244.135px" class="animable" opacity=".3" id="eltce20mb0hmg"/><path style="transform-origin:307.95px 253.285px" id="ela9vye59rp1h" class="animable" fill="#66fcf1" d="M294.4 242.85l27.1 15.65v5.22l-27.1-15.65v-5.22z"/><path style="transform-origin:307.95px 253.285px" class="animable" fill="#fff" opacity=".4" d="M294.4 242.85l27.1 15.65v5.22l-27.1-15.65v-5.22z" id="elu1mr40s5bbl"/><path d="M269.53 111.1a5.16 5.16 0 00-2.26 4.09v83.14a5.34 5.34 0 002.41 4.17l103.63 59.83a4.52 4.52 0 006.93-4v-83.14a5.32 5.32 0 00-2.41-4.17L274.2 111.19a5.16 5.16 0 00-4.67-.09z" style="transform-origin:323.757px 186.807px" id="elzavlcx5fd7" class="animable" fill="#66fcf1"/><path d="M373.31 262.33a4.52 4.52 0 006.93-4v-83.14a4.94 4.94 0 00-.7-2.37l-80.64 46.55z" style="transform-origin:339.572px 217.924px" id="eljf07hv020n" class="animable" fill="#66fcf1"/><path d="M373.55 262.15a4.52 4.52 0 006.9-4L380 175a5 5 0 00-.72-2.37l-80.39 47z" style="transform-origin:339.671px 217.73px" class="animable" opacity=".2" id="eli5cjf43f6nh"/><path d="M267.27 198.33v-83.14c0-1.54 1.08-2.16 2.41-1.4l103.63 59.84a5.32 5.32 0 012.41 4.17v83.14c0 1.54-1.08 2.16-2.41 1.39L269.68 202.5a5.34 5.34 0 01-2.41-4.17z" style="transform-origin:321.495px 188.063px" id="ell6xqxhxgu6" class="animable" fill="#66fcf1"/><path d="M267.27 198.33v-83.14c0-1.54 1.08-2.16 2.41-1.4l103.63 59.84a5.32 5.32 0 012.41 4.17v83.14c0 1.54-1.08 2.16-2.41 1.39L269.68 202.5a5.34 5.34 0 01-2.41-4.17z" style="transform-origin:321.495px 188.063px" class="animable" fill="#fff" opacity=".4" id="el3m3idm50x15"/><path d="M271.46 117.43l100.08 57.78a4.26 4.26 0 011.92 3.34v73.81c0 1.23-.86 1.73-1.92 1.12L271.46 195.7a4.26 4.26 0 01-1.93-3.34v-73.82c0-1.23.86-1.73 1.93-1.11z" style="transform-origin:321.495px 185.452px" id="el5l7mnd3b42t" class="animable" fill="#fff"/><path d="M255.83 239l-22.3 12.87a4.52 4.52 0 000 8l72 41.57a5.32 5.32 0 004.82 0l22.3-12.87a4.53 4.53 0 000-8l-72-41.57a5.3 5.3 0 00-4.82 0z" style="transform-origin:283.084px 270.219px" id="el261ipqsnyiz" class="animable" fill="#37474f"/><path d="M307.94 302a4.86 4.86 0 002.41-.58l22.3-12.87a4.53 4.53 0 000-8l-2.32-1.34h-22.39z" style="transform-origin:321.497px 290.606px" id="elstavfk0mezq" class="animable" fill="#263238"/><path d="M332.66 280.59l-72-41.57a5.32 5.32 0 00-4.82 0l-22.3 12.88c-1.33.76-1.33 2 0 2.78l72 41.57a5.36 5.36 0 004.81 0l22.3-12.88c1.35-.76 1.35-2.01.01-2.78z" style="transform-origin:283.103px 267.631px" id="elq4mynhq7zbd" class="animable" fill="#455a64"/><path d="M322.39 278.53a.44.44 0 01-.37 0l-2.21-1.28c-.09 0-.08-.15 0-.21l.73-.42a.41.41 0 01.37 0l2.21 1.28c.09.05.08.15 0 .21z" style="transform-origin:321.465px 277.573px" id="el7ubq4w0bcf2" class="animable" fill="#37474f"/><path d="M319.16 276.67a.44.44 0 01-.37 0l-2.21-1.28c-.09 0-.08-.15 0-.21l.73-.42a.42.42 0 01.36 0l2.22 1.28c.09.05.08.15 0 .21z" style="transform-origin:318.235px 275.715px" id="el7uh3naeofnn" class="animable" fill="#37474f"/><path d="M325.62 280.4a.38.38 0 01-.36 0l-2.21-1.27c-.1-.06-.09-.15 0-.22l.73-.42a.4.4 0 01.37 0l2.21 1.27c.1.06.09.15 0 .22z" style="transform-origin:324.705px 279.445px" id="el7as2cpdxl2r" class="animable" fill="#37474f"/><path d="M328.86 282.27a.44.44 0 01-.37 0l-2.21-1.27c-.1-.05-.08-.15 0-.21l.73-.42a.42.42 0 01.36 0l2.22 1.28c.09.06.08.15 0 .21z" style="transform-origin:327.933px 281.32px" id="elh0wpej0n4ya" class="animable" fill="#37474f"/><path d="M297.12 267.54l-2.76 1.58c-.1.07-.12.16 0 .22l3.74 2.16a.44.44 0 00.37 0l2.75-1.59c.11-.06.12-.15 0-.21l-3.75-2.16a.39.39 0 00-.35 0z" style="transform-origin:297.792px 269.52px" id="elismxtl1bo8" class="animable" fill="#37474f"/><path d="M255.08 243.27l-2.75 1.59c-.11.06-.12.16 0 .21l2.21 1.28a.41.41 0 00.37 0l2.75-1.59c.11-.06.12-.15 0-.21l-2.21-1.27a.4.4 0 00-.37-.01z" style="transform-origin:254.995px 244.812px" id="ele6ripufguw5" class="animable" fill="#37474f"/><path d="M258.32 245.14l-2.75 1.59c-.11.06-.12.15 0 .21l2.21 1.28a.44.44 0 00.37 0l2.75-1.59c.11-.06.12-.16 0-.21l-2.22-1.28a.42.42 0 00-.36 0z" style="transform-origin:258.235px 246.68px" id="elgypq7w4y1y" class="animable" fill="#37474f"/><path d="M252.39 254l2.75-1.59c.11-.07.12-.16 0-.21l-2.14-1.32a.38.38 0 00-.36 0l-2.75 1.59c-.11.06-.12.16 0 .21L252 254a.4.4 0 00.39 0z" style="transform-origin:252.515px 252.443px" id="eloup2c64bz7m" class="animable" fill="#37474f"/><path d="M255.62 255.82l2.75-1.59c.11-.06.12-.15 0-.21l-2.21-1.27a.4.4 0 00-.37 0l-2.75 1.59c-.11.06-.12.16 0 .21l2.22 1.28a.39.39 0 00.36-.01z" style="transform-origin:255.705px 254.287px" id="el3u7kzp0h6ud" class="animable" fill="#37474f"/><path d="M258.86 257.69l2.75-1.59c.1-.06.12-.16 0-.21l-2.21-1.28a.41.41 0 00-.37 0l-2.75 1.59c-.11.06-.12.15 0 .21l2.21 1.27a.4.4 0 00.37.01z" style="transform-origin:258.943px 256.148px" id="elhtl5skp5kjp" class="animable" fill="#37474f"/><path d="M262.09 259.56l2.75-1.59c.11-.07.12-.16 0-.21l-2.22-1.28a.38.38 0 00-.36 0l-2.75 1.59c-.11.06-.12.16 0 .21l2.21 1.28a.4.4 0 00.37 0z" style="transform-origin:262.175px 258.02px" id="elbjhuzi27se7" class="animable" fill="#37474f"/><path d="M261.55 247l-2.75 1.59c-.11.07-.12.16 0 .21l2.22 1.28a.38.38 0 00.36 0l2.75-1.59c.11-.06.12-.16 0-.21l-2.21-1.28a.44.44 0 00-.37 0z" style="transform-origin:261.465px 248.542px" id="el2ptkfrwiz5t" class="animable" fill="#37474f"/><path d="M264.78 248.87l-2.78 1.59c-.11.06-.12.16 0 .21l2.21 1.28a.41.41 0 00.37 0l2.75-1.59c.1-.06.12-.15 0-.21l-2.21-1.27a.4.4 0 00-.34-.01z" style="transform-origin:264.663px 250.415px" id="eluhfh9itc14i" class="animable" fill="#37474f"/><path d="M287.47 271c.11-.06.12-.15 0-.21l-2.21-1.27a.4.4 0 00-.37 0l-2.75 1.59c-.11.06-.12.16 0 .21l2.21 1.28a.41.41 0 00.37 0z" style="transform-origin:284.805px 271.059px" id="el0f9mh1iqrza4" class="animable" fill="#37474f"/><path d="M290.65 263.8l-2.75 1.59c-.11.07-.12.16 0 .21l2.21 1.28a.4.4 0 00.37 0l2.75-1.59c.11-.06.12-.16 0-.21l-2.23-1.29a.4.4 0 00-.35.01z" style="transform-origin:290.565px 265.34px" id="elr277u68j0ki" class="animable" fill="#37474f"/><path d="M275.9 272.07l2.75-1.59c.11-.06.12-.16 0-.21l-2.18-1.27a.41.41 0 00-.37 0l-2.75 1.58c-.11.07-.12.16 0 .22l2.22 1.27a.38.38 0 00.33 0z" style="transform-origin:276px 270.532px" id="elw9uzr7510b" class="animable" fill="#37474f"/><path d="M281.89 272.35c.1-.07.12-.16 0-.22l-2.21-1.27a.4.4 0 00-.37 0l-2.75 1.59c-.11.06-.12.16 0 .21l2.21 1.28a.41.41 0 00.37 0z" style="transform-origin:279.223px 272.399px" id="elkqcxx119x1" class="animable" fill="#37474f"/><path d="M287.42 261.94l-2.75 1.59c-.11.06-.13.15 0 .21l2.21 1.27a.4.4 0 00.37 0l2.75-1.59c.11-.06.12-.16 0-.21l-2.21-1.28a.42.42 0 00-.37.01z" style="transform-origin:287.333px 263.474px" id="elkds9koemhb" class="animable" fill="#37474f"/><path d="M271.25 252.6l-2.75 1.59c-.11.07-.12.16 0 .21l2.22 1.28a.38.38 0 00.36 0l2.75-1.59c.11-.06.12-.16 0-.21l-2.21-1.28a.44.44 0 00-.37 0z" style="transform-origin:271.165px 254.142px" id="elf6aieu3jj9g" class="animable" fill="#37474f"/><path d="M284.18 260.07l-2.75 1.59c-.11.06-.12.16 0 .21l2.21 1.28a.39.39 0 00.36 0l2.76-1.58c.1-.07.12-.16 0-.22l-2.21-1.27a.4.4 0 00-.37-.01z" style="transform-origin:284.093px 261.612px" id="elkh7ihctsgz" class="animable" fill="#37474f"/><path d="M268 250.74l-2.75 1.59c-.11.06-.12.15 0 .21l2.21 1.27a.4.4 0 00.37 0l2.75-1.59c.11-.06.12-.16 0-.21l-2.22-1.28a.42.42 0 00-.36.01z" style="transform-origin:267.915px 252.275px" id="elbpwsng8e177" class="animable" fill="#37474f"/><path d="M274.48 254.47l-2.75 1.59c-.11.06-.12.16 0 .21l2.21 1.28a.39.39 0 00.36 0l2.76-1.59c.1-.06.12-.15 0-.21l-2.21-1.27a.4.4 0 00-.37-.01z" style="transform-origin:274.393px 256.012px" id="el6wmsfa4638f" class="animable" fill="#37474f"/><path d="M277.72 256.34l-2.72 1.59c-.11.06-.12.15 0 .21l2.21 1.27a.4.4 0 00.37 0l2.75-1.59c.11-.06.12-.16 0-.21l-2.22-1.28a.42.42 0 00-.39.01z" style="transform-origin:277.665px 257.871px" id="el38ox2at2x7z" class="animable" fill="#37474f"/><path d="M281 258.2l-2.75 1.59c-.11.07-.12.16 0 .21l2.21 1.28a.4.4 0 00.37 0l2.75-1.59c.11-.06.12-.16 0-.21l-2.21-1.28a.44.44 0 00-.37 0z" style="transform-origin:280.915px 259.742px" id="el0rv65ri6lmb" class="animable" fill="#37474f"/><path d="M268.56 263.29l2.75-1.59c.1-.06.12-.16 0-.21l-2.21-1.28a.41.41 0 00-.37 0l-2.73 1.61c-.11.06-.12.15 0 .21l2.21 1.27a.4.4 0 00.35-.01z" style="transform-origin:268.653px 261.751px" id="elv5y254cno9" class="animable" fill="#37474f"/><path d="M265.32 261.42l2.75-1.59c.11-.06.12-.15 0-.21l-2.21-1.27a.4.4 0 00-.37 0l-2.72 1.65c-.11.06-.12.16 0 .21l2.22 1.28a.39.39 0 00.33-.07z" style="transform-origin:265.42px 259.903px" id="elbxa909z1qke" class="animable" fill="#37474f"/><path d="M259.05 250.11l-2.75 1.58c-.11.07-.12.16 0 .22l2.21 1.27a.4.4 0 00.37 0l2.75-1.59c.1-.06.12-.16 0-.21l-2.21-1.28a.41.41 0 00-.37.01z" style="transform-origin:258.963px 251.643px" id="elu3rwgj3zy1n" class="animable" fill="#37474f"/><path d="M255.82 248.24l-2.75 1.59c-.11.06-.12.15 0 .21l2.22 1.28a.42.42 0 00.36 0l2.75-1.59c.11-.06.12-.16 0-.21l-2.21-1.28a.44.44 0 00-.37 0z" style="transform-origin:255.735px 249.78px" id="elqa4u8h82fni" class="animable" fill="#37474f"/><path d="M284.24 269.17c.11-.06.12-.16 0-.21l-2.21-1.28a.38.38 0 00-.36 0l-2.75 1.59c-.11.06-.13.16 0 .21l2.21 1.28a.4.4 0 00.37 0z" style="transform-origin:281.578px 269.22px" id="elo5ircxocx7" class="animable" fill="#37474f"/><path d="M278.25 268.89l2.75-1.59c.1-.06.12-.16 0-.21l-2.21-1.28a.41.41 0 00-.37 0l-2.75 1.59c-.11.06-.12.15 0 .21l2.21 1.27a.38.38 0 00.37.01z" style="transform-origin:278.333px 267.35px" id="el0wmqbe6vlpyg" class="animable" fill="#37474f"/><path d="M275 267l2.75-1.59c.11-.06.12-.15 0-.21l-2.16-1.2a.4.4 0 00-.37 0l-2.75 1.59c-.11.06-.12.16 0 .21l2.21 1.28a.41.41 0 00.32-.08z" style="transform-origin:275.11px 265.52px" id="elme0ltf1i80a" class="animable" fill="#37474f"/><path d="M271.79 265.16l2.75-1.59c.11-.07.12-.16 0-.21l-2.22-1.28a.38.38 0 00-.36 0l-2.75 1.59c-.11.07-.12.16 0 .21l2.21 1.28a.4.4 0 00.37 0z" style="transform-origin:271.875px 263.62px" id="el9iflijzwrdm" class="animable" fill="#37474f"/><path d="M278.45 261.31l-2.75 1.58c-.11.07-.12.16 0 .22l2.21 1.27a.38.38 0 00.36 0l2.76-1.59c.1-.06.12-.16 0-.21l-2.21-1.28a.41.41 0 00-.37.01z" style="transform-origin:278.363px 262.843px" id="el3lt33j1vh02" class="animable" fill="#37474f"/><path d="M265.52 253.84l-2.75 1.59c-.11.06-.12.15 0 .21l2.22 1.28a.42.42 0 00.36 0l2.75-1.59c.11-.06.12-.16 0-.21l-2.21-1.28a.44.44 0 00-.37 0z" style="transform-origin:265.435px 255.38px" id="ellvipovxkeu" class="animable" fill="#37474f"/><path d="M268.75 255.71l-2.75 1.58c-.11.07-.12.16 0 .22l2.21 1.27a.4.4 0 00.37 0l2.75-1.59c.1-.06.12-.16 0-.21l-2.21-1.28a.41.41 0 00-.37.01z" style="transform-origin:268.663px 257.243px" id="elmg5j4gz0wy" class="animable" fill="#37474f"/><path d="M262.29 252l-2.75 1.59c-.11.06-.12.16 0 .21l2.21 1.28a.41.41 0 00.37 0l2.75-1.58c.11-.07.12-.16 0-.22l-2.22-1.28a.38.38 0 00-.36 0z" style="transform-origin:262.205px 253.539px" id="el3wsam60vha3" class="animable" fill="#37474f"/><path d="M275.22 259.44l-2.75 1.56c-.11.06-.12.15 0 .21l2.21 1.28a.44.44 0 00.37 0l2.75-1.59c.11-.06.12-.16 0-.21l-2.21-1.28a.44.44 0 00-.37.03z" style="transform-origin:275.135px 260.957px" id="elch7dsdpl0m" class="animable" fill="#37474f"/><path d="M272 257.57l-2.75 1.59c-.11.06-.12.16 0 .21l2.21 1.28a.41.41 0 00.37 0l2.75-1.58c.11-.07.12-.16 0-.22l-2.22-1.27a.38.38 0 00-.36-.01z" style="transform-origin:271.915px 259.112px" id="elqcs7225lris" class="animable" fill="#37474f"/><path d="M291.39 268.72l-2.76 1.59c-.1.06-.12.16 0 .21l2.21 1.28a.41.41 0 00.37 0l2.75-1.58c.11-.07.12-.16 0-.22l-2.21-1.27a.38.38 0 00-.36-.01z" style="transform-origin:291.297px 270.262px" id="elbxt90fwutj9" class="animable" fill="#37474f"/><path d="M294.79 270.6l-4.48 2.59c-.11.06-.12.16 0 .21l2.21 1.28a.44.44 0 00.37 0l4.48-2.59c.11-.06.13-.15 0-.21l-2.21-1.28a.44.44 0 00-.37 0z" style="transform-origin:293.842px 272.64px" id="el8jsnvntz0j3" class="animable" fill="#37474f"/><path d="M288.15 271.42L285.4 273c-.11.06-.12.16 0 .21l4.81 2.79a.44.44 0 00.37 0l2.75-1.59c.11-.06.12-.16 0-.21l-4.82-2.78a.4.4 0 00-.36 0z" style="transform-origin:289.365px 273.709px" id="elw34nsm8unh" class="animable" fill="#37474f"/><path d="M281.69 263.12l-2.75 1.59c-.11.06-.13.16 0 .21l2.21 1.28a.41.41 0 00.37 0l2.75-1.58c.11-.07.12-.16 0-.22l-2.21-1.27a.38.38 0 00-.37-.01z" style="transform-origin:281.603px 264.66px" id="elcog1i269wk8" class="animable" fill="#37474f"/><path d="M288.15 266.86l-2.75 1.58c-.11.07-.12.16 0 .21l2.21 1.28a.38.38 0 00.36 0l2.75-1.59c.11-.06.13-.16 0-.21l-2.21-1.28a.41.41 0 00-.36.01z" style="transform-origin:288.062px 268.394px" id="elvs1kr85nvc" class="animable" fill="#37474f"/><path d="M284.92 265l-2.75 1.59c-.11.06-.12.15 0 .21l2.21 1.28a.44.44 0 00.37 0l2.75-1.59c.11-.06.12-.16 0-.21l-2.21-1.28a.44.44 0 00-.37 0z" style="transform-origin:284.835px 266.54px" id="eljefok8t1nem" class="animable" fill="#37474f"/><path d="M272.67 270.2l2.75-1.59c.11-.06.12-.16 0-.21l-2.22-1.28a.42.42 0 00-.36 0l-2.75 1.59c-.11.06-.12.15 0 .21l2.21 1.28a.44.44 0 00.37 0z" style="transform-origin:272.755px 268.66px" id="elxokbquuexre" class="animable" fill="#37474f"/><path d="M291.11 267.47l2.21 1.28a.39.39 0 00.36 0l2.75-1.59c.11-.06.13-.15 0-.21l-2.21-1.27a.4.4 0 00-.37 0l-2.75 1.59c-.1.05-.1.15.01.2z" style="transform-origin:293.773px 267.214px" id="el0eawzhxfrtkh" class="animable" fill="#37474f"/><path d="M248.64 247.4l3.4 2a.4.4 0 00.37 0l2.75-1.59c.1-.06.12-.16 0-.21l-3.4-2a.44.44 0 00-.37 0l-2.75 1.59c-.09.06-.1.15 0 .21z" style="transform-origin:251.906px 247.502px" id="elv6y7opivfy" class="animable" fill="#37474f"/><path d="M257.11 242.33l2.72 1.57a.41.41 0 00.37 0l2.8-1.6c.11-.07.12-.16 0-.22l-2.73-1.57a.42.42 0 00-.36 0l-2.75 1.59c-.16.08-.16.17-.05.23z" style="transform-origin:260.06px 242.207px" id="elnezyj3aoz8" class="animable" fill="#37474f"/><path d="M244.45 249.59l4.25 2.46a.44.44 0 00.37 0l2.75-1.59c.11-.07.12-.16 0-.21l-4.26-2.46a.44.44 0 00-.37 0l-2.75 1.59c-.07.07-.09.16.01.21z" style="transform-origin:248.144px 249.92px" id="el9db63n8rd4h" class="animable" fill="#37474f"/><path d="M283.57 276.72l2.72 1.58a.44.44 0 00.37 0l2.75-1.59c.11-.06.12-.15 0-.21l-2.73-1.57a.41.41 0 00-.36 0l-2.75 1.59c-.08.06-.09.15 0 .2z" style="transform-origin:286.501px 276.615px" id="elke171qubw7a" class="animable" fill="#37474f"/><path d="M240.52 251.87l2.72 1.57a.44.44 0 00.37 0l2.75-1.59c.11-.07.12-.16 0-.21l-2.72-1.58a.44.44 0 00-.37 0l-2.75 1.59c-.08.07-.1.16 0 .22z" style="transform-origin:243.449px 251.75px" id="elvycqxz9h7z" class="animable" fill="#37474f"/><path d="M281.63 253.08c.11-.06.12-.16 0-.21l-2.22-1.28a.39.39 0 00-.36 0l-2.75 1.58c-.11.07-.12.16 0 .22l2.21 1.27a.4.4 0 00.37 0z" style="transform-origin:278.965px 253.126px" id="elrhi1x4wp21" class="animable" fill="#37474f"/><path d="M288.1 256.81c.1-.06.12-.15 0-.21l-2.21-1.28a.44.44 0 00-.37 0l-2.75 1.59c-.11.06-.12.16 0 .21l2.21 1.28a.44.44 0 00.37 0z" style="transform-origin:285.433px 256.86px" id="elxf1bh1w5el" class="animable" fill="#37474f"/><path d="M284.86 255c.11-.07.12-.16 0-.21l-2.21-1.28a.4.4 0 00-.37 0l-2.75 1.59c-.11.06-.12.16 0 .21l2.22 1.28a.41.41 0 00.36 0z" style="transform-origin:282.195px 255.048px" id="eleet7f1o7het" class="animable" fill="#37474f"/><path d="M291.33 258.68c.11-.06.12-.16 0-.21l-2.22-1.28a.39.39 0 00-.36 0L286 258.8c-.11.06-.12.15 0 .21l2.21 1.27a.4.4 0 00.37 0z" style="transform-origin:288.665px 258.736px" id="elvzj8ifuto6" class="animable" fill="#37474f"/><path d="M279 278.39c-.11.06-.12.16 0 .21l3.4 2a.44.44 0 00.37 0l2.75-1.59c.11-.06.12-.16 0-.21l-3.41-2a.38.38 0 00-.36 0z" style="transform-origin:282.26px 278.698px" id="elhd4pdbm6gal" class="animable" fill="#37474f"/><path d="M277 250.44c.1-.06.12-.15 0-.21l-2.15-1.23a.44.44 0 00-.37 0l-2.75 1.59c-.11.06-.12.15 0 .21l2.21 1.28a.42.42 0 00.36 0z" style="transform-origin:274.363px 250.54px" id="el3270dqj6cvm" class="animable" fill="#37474f"/><path d="M273.8 248.58c.11-.07.12-.16 0-.22l-2.21-1.27a.4.4 0 00-.37 0l-2.75 1.59c-.11.06-.12.16 0 .21l2.22 1.28a.39.39 0 00.36 0z" style="transform-origin:271.135px 248.629px" id="elfuac47px3ui" class="animable" fill="#37474f"/><path d="M267.34 244.84c.1-.06.12-.15 0-.21l-2.21-1.28a.44.44 0 00-.37 0L262 245c-.11.06-.12.15 0 .21l2.21 1.28a.44.44 0 00.37 0z" style="transform-origin:264.668px 244.92px" id="elffvm5e26z2m" class="animable" fill="#37474f"/><path d="M270.57 246.71c.11-.06.12-.16 0-.21l-2.22-1.28a.39.39 0 00-.36 0l-2.75 1.58c-.11.07-.12.16 0 .22l2.21 1.27a.4.4 0 00.37 0z" style="transform-origin:267.905px 246.756px" id="elgr6sdpnipio" class="animable" fill="#37474f"/><path d="M269.44 268.33l2.75-1.58c.11-.07.12-.16 0-.22l-2.19-1.27a.4.4 0 00-.37 0l-2.75 1.59c-.11.06-.12.16 0 .21l2.21 1.28a.41.41 0 00.35-.01z" style="transform-origin:269.535px 266.795px" id="el0q102jbjhxhr" class="animable" fill="#37474f"/><path d="M244.78 258.64c-.11.06-.12.16 0 .21l2.72 1.58a.44.44 0 00.37 0l2.75-1.59c.1-.06.12-.16 0-.21L247.9 257a.4.4 0 00-.37 0z" style="transform-origin:247.698px 258.713px" id="eldi6lok33hz" class="animable" fill="#37474f"/><path d="M236.61 253.93c-.1.06-.12.15 0 .21l3.4 2a.4.4 0 00.37 0l2.75-1.59c.11-.06.12-.16 0-.21l-3.4-2a.41.41 0 00-.37 0z" style="transform-origin:239.872px 254.241px" id="els1zrgo87vt" class="animable" fill="#37474f"/><path d="M248.53 260.8c-.11.07-.12.16 0 .21l18.21 10.52a.42.42 0 00.36 0l2.75-1.59c.11-.06.13-.15 0-.21l-18.21-10.53a.41.41 0 00-.36 0z" style="transform-origin:259.192px 265.364px" id="eli7hkdizupql" class="animable" fill="#37474f"/><path d="M271.5 274.07c-.11.06-.12.15 0 .21l2.72 1.57a.41.41 0 00.37 0l2.75-1.58c.11-.07.12-.16 0-.22l-2.72-1.57a.44.44 0 00-.37 0z" style="transform-origin:274.42px 274.167px" id="el666eg5poxv3" class="animable" fill="#37474f"/><path d="M267.75 271.9c-.1.07-.12.16 0 .22l2.72 1.57a.41.41 0 00.37 0l2.75-1.59c.11-.06.12-.15 0-.21l-2.72-1.57a.39.39 0 00-.36 0z" style="transform-origin:270.672px 272.005px" id="eldekw6yrmyzp" class="animable" fill="#37474f"/><path d="M275.24 276.23c-.11.06-.12.15 0 .21l2.72 1.57a.38.38 0 00.36 0l2.76-1.59c.1-.07.12-.16 0-.21l-2.72-1.58a.44.44 0 00-.37 0z" style="transform-origin:278.158px 276.322px" id="elds855ypx7s" class="animable" fill="#37474f"/><path d="M241 256.48c-.11.06-.12.16 0 .21l2.72 1.57a.4.4 0 00.37 0l2.75-1.59c.11-.06.12-.16 0-.21l-2.72-1.57a.4.4 0 00-.37 0z" style="transform-origin:243.92px 256.575px" id="elhxa3h5ggatr" class="animable" fill="#37474f"/><path d="M286.68 278.29l2.75-1.59c.11-.06.12-.15 0-.21l-6.43-3.73a.4.4 0 00-.37 0l-2.75 1.59c-.11.07-.12.16 0 .21l6.47 3.74a.44.44 0 00.33-.01z" style="transform-origin:284.655px 275.521px" id="el1nrozfjjb8k" class="animable" fill="#37474f"/><path d="M246.8 255.27l2.75-1.59c.11-.06.12-.16 0-.21l-2.21-1.28a.41.41 0 00-.37 0l-2.75 1.58c-.11.07-.12.16 0 .22l2.22 1.27a.38.38 0 00.36.01z" style="transform-origin:246.885px 253.728px" id="elmg3stbm9l8" class="animable" fill="#37474f"/><path d="M263 264.6l2.75-1.59c.11-.06.12-.15 0-.21l-2.22-1.28a.42.42 0 00-.36 0l-2.75 1.59c-.11.06-.12.15 0 .21l2.21 1.28a.44.44 0 00.37 0z" style="transform-origin:263.085px 263.06px" id="elnomocyvakvh" class="animable" fill="#37474f"/><path d="M259.74 262.73l2.75-1.58c.11-.07.12-.16 0-.22l-2.21-1.27a.4.4 0 00-.37 0l-2.75 1.59c-.1.06-.12.16 0 .21l2.21 1.28a.41.41 0 00.37-.01z" style="transform-origin:259.827px 261.197px" id="el54fp7l9wj73" class="animable" fill="#37474f"/><path d="M266.2 266.47l2.75-1.59c.11-.06.12-.16 0-.21l-2.21-1.28a.41.41 0 00-.37 0l-2.72 1.61c-.11.07-.12.16 0 .22l2.22 1.27a.38.38 0 00.33-.02z" style="transform-origin:266.3px 264.932px" id="el2kc5anekv7k" class="animable" fill="#37474f"/><path d="M253.27 259l2.75-1.59c.11-.06.12-.15 0-.21l-2.22-1.28a.42.42 0 00-.36 0l-2.75 1.59c-.11.06-.12.15 0 .21l2.21 1.28a.44.44 0 00.37 0z" style="transform-origin:253.355px 257.46px" id="elicof2n90e8m" class="animable" fill="#37474f"/><path d="M256.5 260.87l2.75-1.59c.11-.06.12-.16 0-.21l-2.21-1.28a.41.41 0 00-.37 0l-2.67 1.6c-.11.07-.12.16 0 .22l2.22 1.27a.38.38 0 00.28-.01z" style="transform-origin:256.625px 259.324px" id="el5ikvtad3yb" class="animable" fill="#37474f"/><path d="M250 257.13l2.75-1.58c.11-.07.12-.16 0-.22l-2.21-1.27a.4.4 0 00-.37 0l-2.75 1.59c-.1.06-.12.16 0 .21l2.21 1.28a.41.41 0 00.37-.01z" style="transform-origin:250.087px 255.597px" id="eltr7kplfk70r" class="animable" fill="#37474f"/><path d="M301.6 277.83l2.75-1.59c.11-.06.12-.16 0-.21l-2.22-1.28a.42.42 0 00-.36 0l-2.75 1.59c-.11.06-.12.15 0 .21l2.21 1.28a.44.44 0 00.37 0z" style="transform-origin:301.685px 276.29px" id="ellcrbztglf5" class="animable" fill="#37474f"/><path d="M305.73 272.5l-2.73 1.59c-.11.06-.12.16 0 .21l2.21 1.28a.44.44 0 00.37 0l2.75-1.59c.11-.06.12-.15 0-.21l-2.22-1.28a.42.42 0 00-.38 0z" style="transform-origin:305.665px 274.038px" id="elqvv2y6yug2" class="animable" fill="#37474f"/><path d="M309 274.37l-2.79 1.63c-.11.07-.12.16 0 .22l2.22 1.27a.38.38 0 00.36 0l2.75-1.59c.11-.06.12-.16 0-.21l-2.21-1.28a.41.41 0 00-.33-.04z" style="transform-origin:308.875px 275.944px" id="el97wf13vtw0k" class="animable" fill="#37474f"/><path d="M304.83 279.7l2.75-1.59c.11-.06.12-.16 0-.21l-2.21-1.28a.41.41 0 00-.37 0l-2.75 1.58c-.11.07-.12.16 0 .22l2.22 1.27a.38.38 0 00.36.01z" style="transform-origin:304.915px 278.158px" id="elav8t8fgxeds" class="animable" fill="#37474f"/><path d="M302.49 270.63l-2.75 1.59c-.11.06-.12.16 0 .21l2.21 1.28a.44.44 0 00.37 0l2.75-1.59c.11-.07.12-.16 0-.21l-2.21-1.28a.4.4 0 00-.37 0z" style="transform-origin:302.405px 272.168px" id="eltjmjpg5ff5" class="animable" fill="#37474f"/><path d="M284 281.3c-.1.06-.12.15 0 .21l2.21 1.28a.44.44 0 00.37 0l2.75-1.59c.11-.06.12-.15 0-.21l-2.21-1.28a.44.44 0 00-.37 0z" style="transform-origin:286.667px 281.25px" id="eltcodfqok47d" class="animable" fill="#37474f"/><path d="M290.49 285c-.11.06-.12.16 0 .21l2.22 1.28a.39.39 0 00.36 0l2.75-1.58c.11-.07.12-.16 0-.22l-2.21-1.27a.4.4 0 00-.37 0z" style="transform-origin:293.155px 284.954px" id="el876dih4p839" class="animable" fill="#37474f"/><path d="M287.26 283.16c-.11.07-.12.16 0 .22l2.21 1.27a.4.4 0 00.37 0l2.75-1.59c.11-.06.12-.16 0-.21l-2.22-1.28a.39.39 0 00-.36 0z" style="transform-origin:289.925px 283.111px" id="elhapi57gtpib" class="animable" fill="#37474f"/><path d="M298.37 276l2.75-1.58c.11-.07.12-.16 0-.22l-2.21-1.27a.4.4 0 00-.37 0l-2.75 1.59c-.11.06-.12.16 0 .21L298 276a.41.41 0 00.37 0z" style="transform-origin:298.455px 274.464px" id="elexxfc7cmags" class="animable" fill="#37474f"/><path d="M296.49 280.78c.11-.06.12-.16 0-.21l-2.22-1.28a.39.39 0 00-.36 0l-2.75 1.58c-.11.07-.12.16 0 .22l2.21 1.27a.4.4 0 00.37 0z" style="transform-origin:293.825px 280.826px" id="el790od629gnv" class="animable" fill="#37474f"/><path d="M316.28 273.09c.11-.07.12-.16 0-.22l-2.21-1.27a.4.4 0 00-.37 0l-2.7 1.6c-.11.06-.12.16 0 .21l2.21 1.28a.41.41 0 00.37 0z" style="transform-origin:313.64px 273.144px" id="elz0b75pd4c6" class="animable" fill="#37474f"/><path d="M309.82 269.35c.1-.06.12-.15 0-.21l-2.21-1.28a.44.44 0 00-.37 0l-2.75 1.59c-.11.06-.12.16 0 .21l2.21 1.34a.44.44 0 00.37 0z" style="transform-origin:307.153px 269.43px" id="elzz0p7hehx8r" class="animable" fill="#37474f"/><path d="M313.05 271.22c.11-.06.12-.16 0-.21l-2.22-1.28a.39.39 0 00-.36 0l-2.75 1.58c-.11.07-.12.16 0 .22l2.21 1.27a.4.4 0 00.37 0z" style="transform-origin:310.385px 271.266px" id="el07dk6r5ouw7" class="animable" fill="#37474f"/><path d="M319.15 280.23l-2.75 1.58c-.11.07-.12.16 0 .22l2.21 1.27a.4.4 0 00.37 0l2.75-1.59c.11-.06.12-.16 0-.21l-2.21-1.28a.41.41 0 00-.37.01z" style="transform-origin:319.065px 281.763px" id="el72g5p10oav7" class="animable" fill="#37474f"/><path d="M313.17 280c-.11.06-.12.15 0 .21l2.21 1.28a.44.44 0 00.37 0l2.75-1.59c.11-.06.12-.15 0-.21l-2.22-1.28a.42.42 0 00-.36 0z" style="transform-origin:315.835px 279.95px" id="elgz1xnj2q0e" class="animable" fill="#37474f"/><path d="M307.86 286l2.75-1.59c.11-.06.12-.16 0-.21l-2.22-1.28a.39.39 0 00-.36 0l-2.75 1.59c-.11.06-.12.15 0 .21l2.21 1.27a.4.4 0 00.37.01z" style="transform-origin:307.945px 284.458px" id="el4nv89e5vgfi" class="animable" fill="#37474f"/><path d="M315 285.56l2.75-1.59c.11-.06.12-.16 0-.21l-2.21-1.28a.44.44 0 00-.37 0l-2.75 1.59c-.11.07-.12.16 0 .21l2.21 1.28a.4.4 0 00.37 0z" style="transform-origin:315.085px 284.022px" id="elxq2yefas3s8" class="animable" fill="#37474f"/><path d="M309.24 282.22c-.11.06-.12.15 0 .21l2.21 1.28a.44.44 0 00.37 0l2.75-1.59c.11-.06.12-.16 0-.21l-2.22-1.28a.42.42 0 00-.36 0z" style="transform-origin:311.905px 282.17px" id="elrfwb1qvz60f" class="animable" fill="#37474f"/><path d="M313.84 286.24c.11-.07.12-.16 0-.21l-2.21-1.28a.4.4 0 00-.37 0l-2.75 1.59c-.11.06-.12.16 0 .21l2.21 1.28a.44.44 0 00.37 0z" style="transform-origin:311.175px 286.288px" id="elk17dbyszwx" class="animable" fill="#37474f"/><path d="M294.21 287.16c-.11.06-.12.15 0 .21l5.44 3.14a.4.4 0 00.37 0l2.75-1.59c.11-.06.12-.16 0-.21l-5.45-3.15a.44.44 0 00-.37 0z" style="transform-origin:298.49px 288.037px" id="eludt8kmld1qn" class="animable" fill="#37474f"/><path d="M300.68 290.89c-.11.06-.12.16 0 .21l2.22 1.28a.39.39 0 00.36 0l2.75-1.58c.11-.07.12-.16 0-.22l-2.21-1.27a.4.4 0 00-.37 0z" style="transform-origin:303.345px 290.844px" id="elmifktpah9q" class="animable" fill="#37474f"/><path d="M307.16 290.09l2.75-1.58c.11-.07.12-.16 0-.22l-2.18-1.29a.4.4 0 00-.37 0l-2.75 1.59c-.11.06-.12.16 0 .21l2.22 1.28a.39.39 0 00.33.01z" style="transform-origin:307.26px 288.538px" id="el97f7w7tgmf" class="animable" fill="#37474f"/><path d="M312.68 276.49l-2.75 1.59c-.11.06-.12.16 0 .21l2.21 1.28a.39.39 0 00.36 0l2.76-1.58c.1-.07.12-.16 0-.22l-2.21-1.27a.4.4 0 00-.37-.01z" style="transform-origin:312.593px 278.032px" id="el74a6dq6tuj" class="animable" fill="#37474f"/><path d="M308.75 278.76l-2.75 1.59c-.11.06-.12.16 0 .21l2.21 1.28a.41.41 0 00.37 0l2.75-1.58c.1-.07.12-.16 0-.22l-2.21-1.27a.4.4 0 00-.37-.01z" style="transform-origin:308.663px 280.302px" id="el13i48ezi9vuo" class="animable" fill="#37474f"/><path d="M303.45 284.77c.1-.06.12-.15 0-.21l-2.21-1.28a.44.44 0 00-.37 0l-2.75 1.59c-.11.06-.12.15 0 .21l2.21 1.28a.44.44 0 00.37 0z" style="transform-origin:300.783px 284.82px" id="eljqf7sf9b7s9" class="animable" fill="#37474f"/><path d="M304.63 284.09l2.75-1.59c.1-.06.12-.15 0-.21l-2.19-1.29a.44.44 0 00-.37 0l-2.75 1.59c-.11.06-.12.16 0 .21l2.21 1.28a.41.41 0 00.35.01z" style="transform-origin:304.723px 282.542px" id="elfvi9duqnubo" class="animable" fill="#37474f"/><path d="M321 285.62l-2.21-1.27a.4.4 0 00-.37 0l-6.68 3.86c-.11.06-.12.16 0 .21l2.21 1.28a.44.44 0 00.37 0l6.68-3.86c.11-.07.13-.16 0-.22z" style="transform-origin:316.372px 287.023px" id="elr6bvatqjkmm" class="animable" fill="#37474f"/><path d="M303.89 293l2.21 1.28a.44.44 0 00.37 0l6.68-3.86c.11-.06.12-.15 0-.21l-2.15-1.33a.44.44 0 00-.37 0l-6.68 3.86c-.15.08-.16.17-.06.26z" style="transform-origin:308.53px 291.58px" id="elb1yl3yg9n8f" class="animable" fill="#37474f"/><path d="M324.94 283.57c.1-.07.12-.16 0-.22l-2.21-1.27a.4.4 0 00-.37 0l-2.75 1.59c-.11.06-.12.16 0 .21l2.21 1.28a.41.41 0 00.37 0z" style="transform-origin:322.273px 283.619px" id="el882rxce25le" class="animable" fill="#37474f"/><path d="M303.93 288.23l2.75-1.59c.11-.06.12-.16 0-.21l-2.22-1.28a.39.39 0 00-.36 0l-2.75 1.58c-.11.07-.12.16 0 .22l2.21 1.27a.4.4 0 00.37.01z" style="transform-origin:304.015px 286.688px" id="el8yob4eorm2m" class="animable" fill="#37474f"/><path d="M296.27 261.53c.11-.06.12-.15 0-.21l-2.19-1.32a.42.42 0 00-.36 0l-2.72 1.65c-.11.06-.12.15 0 .21l2.21 1.28a.44.44 0 00.37 0z" style="transform-origin:293.635px 261.57px" id="el8xs80850dxr" class="animable" fill="#37474f"/><path d="M302.74 265.27c.1-.07.12-.16 0-.22l-2.21-1.27a.4.4 0 00-.37 0l-2.75 1.59c-.11.06-.12.16 0 .21l2.21 1.28a.41.41 0 00.37 0z" style="transform-origin:300.073px 265.319px" id="elehl1p1n78e4" class="animable" fill="#37474f"/><path d="M299.5 263.4c.11-.06.12-.16 0-.21l-2.21-1.28a.41.41 0 00-.37 0l-2.75 1.58c-.11.07-.12.16 0 .22l2.22 1.27a.38.38 0 00.36 0z" style="transform-origin:296.835px 263.446px" id="eleac59ozuypd" class="animable" fill="#37474f"/><path d="M306 267.13c.11-.06.12-.15 0-.21l-2.22-1.28a.42.42 0 00-.36 0l-2.75 1.59c-.11.06-.12.15 0 .21l2.21 1.28a.44.44 0 00.37 0z" style="transform-origin:303.335px 267.18px" id="ellp2mmwa4ta" class="animable" fill="#37474f"/></g><g id="freepik--Windows--inject-117" class="animable animator-active" style="transform-origin:272.595px 208.824px;animation:2.5s 1 forwards ease-out slideUp,2s Infinite linear floating;animation-delay:0s,2.5s"><path d="M366.68 130.84v62.27a5.34 5.34 0 002.41 4.17l72 41.57c1.33.77 2.4.15 2.4-1.39v-62.27a5.31 5.31 0 00-2.4-4.17l-72-41.57c-1.33-.77-2.41-.15-2.41 1.39z" style="transform-origin:405.085px 184.15px" id="elp0b09hfkufa" class="animable" fill="#37474f"/><path d="M369.09 197.28l72 41.57c1.33.77 2.4.15 2.4-1.39v-59.83l-76.81-44.35v59.83a5.32 5.32 0 002.41 4.17z" style="transform-origin:405.085px 186.23px" id="eli5vw4xicjna" class="animable" fill="#455a64"/><path d="M372.65 141.94l24.22 14a3.19 3.19 0 011.45 2.5v4.49c0 .93-.65 1.3-1.45.84l-24.22-14a3.19 3.19 0 01-1.45-2.5v-4.49c0-.93.65-1.3 1.45-.84z" style="transform-origin:384.76px 152.855px" id="ellenb7j6bwf" class="animable" fill="#ebebeb"/><path d="M439.39 171.87a2.06 2.06 0 01.92 1.61c0 .59-.41.83-.92.53a2 2 0 01-.93-1.6c0-.59.41-.83.93-.54z" style="transform-origin:439.385px 172.943px" id="elorue5zifwrc" class="animable" fill="#fafafa"/><path d="M435.71 169.75a2.07 2.07 0 01.93 1.61c0 .59-.42.83-.93.53a2 2 0 01-.92-1.6c0-.59.41-.83.92-.54z" style="transform-origin:435.715px 170.823px" id="el9shd4aezx0v" class="animable" fill="#fafafa"/><path d="M432 167.63a2.06 2.06 0 01.92 1.61c0 .59-.41.83-.92.53a2 2 0 01-.93-1.6c.04-.59.46-.83.93-.54z" style="transform-origin:431.995px 168.703px" id="eltofrzvnunn" class="animable" fill="#fafafa"/><path d="M372.65 152.37l33.26 19.2a3.17 3.17 0 011.44 2.46c0 .9-.64 1.25-1.44.79l-33.26-19.2a3.15 3.15 0 01-1.45-2.46c0-.9.65-1.25 1.45-.79z" style="transform-origin:389.275px 163.595px" id="elvoo9ul7wulh" class="animable" fill="#ebebeb"/><path d="M372.65 159.6l33.26 19.2a3.14 3.14 0 011.44 2.46c0 .9-.64 1.25-1.44.79l-33.26-19.2a3.18 3.18 0 01-1.45-2.46c0-.9.65-1.25 1.45-.79z" style="transform-origin:389.275px 170.825px" id="ele2mn7z0l4t" class="animable" fill="#ebebeb"/><path d="M372.65 166.82L405.91 186a3.17 3.17 0 011.44 2.46c0 .9-.64 1.25-1.44.79l-33.26-19.2a3.15 3.15 0 01-1.45-2.46c0-.88.65-1.23 1.45-.77z" style="transform-origin:389.275px 178.035px" id="el6w8u7i307tr" class="animable" fill="#ebebeb"/><path d="M372.65 174.05l33.26 19.2a3.14 3.14 0 011.44 2.46c0 .89-.64 1.25-1.44.79l-33.26-19.2a3.18 3.18 0 01-1.45-2.46c0-.9.65-1.25 1.45-.79z" style="transform-origin:389.275px 185.274px" id="el1c81d0qkwwn" class="animable" fill="#ebebeb"/><path d="M373.13 184l63.93 36.91a4.2 4.2 0 011.94 3.29v6c0 1.23-.88 1.73-1.95 1.11l-63.85-36.93a4.27 4.27 0 01-1.93-3.33v-6c-.07-1.21.8-1.71 1.86-1.05z" style="transform-origin:405.133px 207.642px" id="el6u0qtnj77cq" class="animable" fill="#ebebeb"/><path d="M413.31 165.42l24.12 14a3.25 3.25 0 011.45 2.51l.1 33.12c0 .92-.64 1.3-1.44.84l-24.22-14a3.19 3.19 0 01-1.45-2.5v-33.14c0-.92.65-1.25 1.44-.83z" style="transform-origin:425.425px 190.663px" id="ellevq8kweiyf" class="animable" fill="#fafafa"/><path d="M416.39 179.39c3.43 2 6.21.37 6.21-3.59a12.65 12.65 0 00-1.74-6l-7.55-4.39c-.79-.46-1.44-.09-1.44.83v8.27a12.93 12.93 0 004.52 4.88z" style="transform-origin:417.235px 172.729px" id="el54ouvkvhgyo" class="animable" fill="#263238"/><path d="M438.93 199.66l-4.54-15.49c-.34-1.18-1.08-1.25-1.65-.16l-6.65 12.69-2.71-7.24c-.43-1.15-1.19-1.18-1.7-.06l-6.3 13.73 22.16 12.8c.67.39 1.23.17 1.39-.45z" style="transform-origin:427.155px 199.681px" id="elcnhmdqcggbl" class="animable" fill="#263238"/><path d="M192.38 108.68l27.78-16c1.06-.62 1.92-.12 1.92 1.11v58.16a4.27 4.27 0 01-1.92 3.34l-27.78 16c-1.06.61-1.93.11-1.93-1.12V112a4.29 4.29 0 011.93-3.32z" style="transform-origin:206.265px 131.982px" id="elbpvf3ll5cpu" class="animable" fill="#263238"/><path style="transform-origin:206.265px 131.97px" id="el6alugu46vdj" class="animable" fill="#fafafa" d="M190.45 120.23l31.63-18.26v41.74l-31.63 18.26v-41.74z"/><path d="M204.14 132.41c.34-1.18 1.16-1.3 1.83-.27l3.38 5.22 6.34-19c.39-1.17 1.16-1.23 1.73-.14l4.66 9v16.43l-25.46 14.7z" style="transform-origin:209.35px 137.895px" id="elcsyjfc7tueq" class="animable" fill="#455a64"/><path d="M190.45 130.72a5 5 0 004.52-.6 15 15 0 006.8-11.76 5.29 5.29 0 00-1.34-3.89l-10 5.76z" style="transform-origin:196.106px 122.739px" id="eligbsuw97acp" class="animable" fill="#455a64"/><path d="M195 110.51c.91-.53 1.65-.1 1.65.95a3.61 3.61 0 01-1.65 2.84c-.91.52-1.64.1-1.64-1a3.62 3.62 0 011.64-2.79z" style="transform-origin:195.005px 112.402px" id="el1oks42cinji" class="animable" fill="#fafafa"/><path d="M199.79 108.14l9.27-5.35c.38-.21.69-.06.69.35a1.48 1.48 0 01-.69 1.14l-9.27 5.35c-.38.22-.69.06-.69-.35a1.48 1.48 0 01.69-1.14z" style="transform-origin:204.425px 106.212px" id="elt4k1k7g0b9r" class="animable" fill="#fafafa"/><path d="M199.79 110.69l5.1-3c.38-.22.69-.06.69.35a1.48 1.48 0 01-.69 1.14l-5.1 3c-.38.22-.69.07-.69-.34a1.48 1.48 0 01.69-1.15z" style="transform-origin:202.34px 109.936px" id="elsq3kdmu3rw" class="animable" fill="#fafafa"/><path d="M197.05 165.52h-.54c-.7 0-1.54-.33-1.54-1.34a2.36 2.36 0 011.07-1.85c.46-.26.85-.15 1 .23a2.35 2.35 0 011-1.38c.59-.34 1.07-.07 1.07.61a6 6 0 01-1.53 3.11z" style="transform-origin:197.04px 163.277px" id="elw6ahad6enk" class="animable" fill="#fafafa"/><path d="M205.15 156.81l3.88-2.23c.18-.11.32 0 .32.18v2.74a.73.73 0 01-.32.56l-3.88 2.23c-.17.11-.32 0-.32-.18v-2.74a.76.76 0 01.32-.56z" style="transform-origin:207.09px 157.435px" id="eltng6pt85rfp" class="animable" fill="#fafafa"/><path d="M205.74 160.7c0 .36.14.39.3.07l.86-1.68-1.16.63z" style="transform-origin:206.32px 160.041px" id="elk0j6d7pb2t" class="animable" fill="#fafafa"/><path d="M218.73 150.65l-2.23-.72V151a4.56 4.56 0 00-2.18 2.47 1.75 1.75 0 001.35 2.14 1.66 1.66 0 01-.59-1.36c.13-.94.66-1.27 1.42-1.6v1.25z" style="transform-origin:216.499px 152.77px" id="elevm5rkushxh" class="animable" fill="#fafafa"/><path d="M178.5 94.84v62.27a5.32 5.32 0 01-2.4 4.17l-72 41.57c-1.33.77-2.4.15-2.4-1.39v-62.27a5.31 5.31 0 012.4-4.17l72-41.57c1.33-.77 2.4-.15 2.4 1.39z" style="transform-origin:140.1px 148.15px" id="el9hm8a3y9fpt" class="animable" fill="#37474f"/><path d="M176.1 161.28l-72 41.57c-1.33.77-2.4.15-2.4-1.39v-59.83l76.8-44.35v59.83a5.32 5.32 0 01-2.4 4.17z" style="transform-origin:140.1px 150.23px" id="elma77jg00x6f" class="animable" fill="#455a64"/><path d="M172.54 105.94l-24.22 14a3.19 3.19 0 00-1.45 2.5v4.49c0 .93.65 1.3 1.45.84l24.22-14a3.19 3.19 0 001.45-2.5v-4.49c.01-.93-.65-1.3-1.45-.84z" style="transform-origin:160.43px 116.855px" id="eliioikwfcfog" class="animable" fill="#ebebeb"/><path d="M105.8 135.87a2.06 2.06 0 00-.92 1.61c0 .59.41.83.92.53a2 2 0 00.93-1.6c0-.59-.41-.83-.93-.54z" style="transform-origin:105.805px 136.943px" id="elbnykqa1hhrf" class="animable" fill="#fafafa"/><path d="M109.48 133.75a2.07 2.07 0 00-.93 1.61c0 .59.42.83.93.53a2 2 0 00.92-1.6c0-.59-.4-.83-.92-.54z" style="transform-origin:109.475px 134.823px" id="elq040tnhosg" class="animable" fill="#fafafa"/><path d="M113.15 131.63a2.06 2.06 0 00-.92 1.61c0 .59.41.83.92.53a2 2 0 00.93-1.6c0-.59-.42-.83-.93-.54z" style="transform-origin:113.155px 132.703px" id="elajbxlsilav6" class="animable" fill="#fafafa"/><path d="M172.54 116.37l-33.26 19.2a3.17 3.17 0 00-1.44 2.46c0 .9.64 1.25 1.44.79l33.26-19.2a3.15 3.15 0 001.45-2.46c.01-.9-.65-1.25-1.45-.79z" style="transform-origin:155.915px 127.595px" id="el8254v9nvcm7" class="animable" fill="#ebebeb"/><path d="M172.54 123.6l-33.26 19.2a3.14 3.14 0 00-1.44 2.46c0 .9.64 1.25 1.44.79l33.26-19.2a3.18 3.18 0 001.45-2.46c.01-.9-.65-1.25-1.45-.79z" style="transform-origin:155.915px 134.825px" id="el2taqjur6c7t" class="animable" fill="#ebebeb"/><path d="M172.54 130.82L139.28 150a3.17 3.17 0 00-1.44 2.46c0 .9.64 1.25 1.44.79l33.26-19.2a3.15 3.15 0 001.45-2.46c.01-.88-.65-1.23-1.45-.77z" style="transform-origin:155.915px 142.035px" id="elytn89cuvv6i" class="animable" fill="#ebebeb"/><path d="M172.54 138.05l-33.26 19.2a3.14 3.14 0 00-1.44 2.46c0 .89.64 1.25 1.44.79l33.26-19.2a3.18 3.18 0 001.45-2.46c.01-.9-.65-1.25-1.45-.79z" style="transform-origin:155.915px 149.274px" id="elur7bh3q1x2b" class="animable" fill="#ebebeb"/><path d="M172.06 148l-63.93 36.91a4.2 4.2 0 00-1.91 3.33v6c0 1.23.88 1.73 1.94 1.11l63.86-36.93a4.27 4.27 0 001.93-3.33v-6c.05-1.25-.83-1.75-1.89-1.09z" style="transform-origin:140.086px 171.662px" id="eln2efq7a61v" class="animable" fill="#ebebeb"/><path d="M131.88 129.42l-24.12 14a3.25 3.25 0 00-1.45 2.51l-.1 33.12c0 .92.64 1.3 1.44.84l24.22-14a3.19 3.19 0 001.45-2.5v-33.14c0-.92-.65-1.25-1.44-.83z" style="transform-origin:119.765px 154.663px" id="el37kjm4f9hjw" class="animable" fill="#fafafa"/><path d="M128.8 143.39c-3.43 2-6.21.37-6.21-3.59a12.65 12.65 0 011.74-6l7.55-4.39c.79-.46 1.44-.09 1.44.83v8.27a12.93 12.93 0 01-4.52 4.88z" style="transform-origin:127.955px 136.729px" id="elshhkog64vv" class="animable" fill="#263238"/><path d="M106.26 163.66l4.54-15.49c.34-1.18 1.08-1.25 1.65-.16l6.65 12.69 2.71-7.24c.43-1.15 1.19-1.18 1.7-.06l6.3 13.73-22.16 12.8c-.68.39-1.23.17-1.39-.45z" style="transform-origin:118.035px 163.681px" id="el2g5jtftjwl8" class="animable" fill="#263238"/><path d="M325.75 157.67v57.91c0 .6-.42.84-.93.54l-78.94-45.57a2.08 2.08 0 01-.94-1.63V111c0-.6.42-.84.94-.54L324.82 156a2.1 2.1 0 01.93 1.67z" style="transform-origin:285.345px 163.29px" id="elgvbwabfzsck" class="animable" fill="#455a64"/><path d="M245.88 110.47L324.82 156a2.1 2.1 0 01.93 1.63v4.11L244.94 115v-4c0-.59.42-.83.94-.53z" style="transform-origin:285.345px 136.04px" id="elc2mice0f55d" class="animable" fill="#37474f"/><path d="M322.35 156.17a2 2 0 01.93 1.61c0 .59-.41.83-.93.53a2 2 0 01-.92-1.6c0-.59.41-.83.92-.54z" style="transform-origin:322.355px 157.243px" id="elxhc5u3krv2p" class="animable" fill="#fafafa"/><path d="M318.68 154.05a2.07 2.07 0 01.93 1.61c0 .59-.42.83-.93.53a2 2 0 01-.92-1.6c0-.59.41-.83.92-.54z" style="transform-origin:318.685px 155.123px" id="elj3fxp8z4nad" class="animable" fill="#fafafa"/><path d="M315 151.93a2.06 2.06 0 01.92 1.61c0 .59-.41.83-.92.53a2 2 0 01-.93-1.6c.01-.59.43-.83.93-.54z" style="transform-origin:314.995px 153.003px" id="elewo7o7o5drh" class="animable" fill="#fafafa"/><path d="M260.46 129.32c-3.77-2.18-6.82-.41-6.82 3.93a15.05 15.05 0 006.82 11.81c3.76 2.17 6.81.41 6.81-3.94a15.07 15.07 0 00-6.81-11.8z" style="transform-origin:260.455px 137.188px" id="elqfdrxhqnxep" class="animable" fill="#fff"/><path d="M260 132.45c-1.22-.71-2.21-.14-2.21 1.28a4.9 4.9 0 002.21 3.83c1.22.7 2.21.13 2.21-1.28a4.88 4.88 0 00-2.21-3.83z" style="transform-origin:260px 135.002px" id="elyu602x24dla" class="animable" fill="#263238"/><path d="M256.15 140.26c0-2.32 1.62-3.26 3.63-2.1l1.25.73a8 8 0 013.64 6.29v.62a5.18 5.18 0 01-4.21-.74 13.35 13.35 0 01-4.31-4.26z" style="transform-origin:260.41px 141.813px" id="elrwmmegopn9" class="animable" fill="#263238"/><path d="M272.94 137.34l10.61 6.13a2.44 2.44 0 011.15 1.9c0 .69-.51.95-1.15.58l-10.61-6.13a2.42 2.42 0 01-1.15-1.9c0-.69.51-.92 1.15-.58z" style="transform-origin:278.245px 141.652px" id="elt9yi6e50sfn" class="animable" fill="#fff"/><path d="M272.94 143.42l17.29 10a2.44 2.44 0 011.14 1.9c0 .69-.51 1-1.14.58l-17.29-10a2.42 2.42 0 01-1.15-1.9c0-.69.51-.95 1.15-.58z" style="transform-origin:281.58px 149.671px" id="el77bdvngz7eu" class="animable" fill="#fff"/><path d="M272.94 148l17.29 10a2.47 2.47 0 011.14 1.9c0 .69-.51 1-1.14.58l-17.29-10a2.46 2.46 0 01-1.15-1.91c0-.68.51-.94 1.15-.57z" style="transform-origin:281.58px 154.251px" id="elf8e6pqvcxqk" class="animable" fill="#fff"/><path d="M321.49 201.11v6.71c0 .61-.42.87-.95.56l-19-10.95-1.69-1a2.13 2.13 0 01-1-1.67v-6.72c0-.61.43-.86 1-.56l20.67 11.94a2.12 2.12 0 01.97 1.69z" style="transform-origin:310.17px 197.932px" id="el2p4uueeglyf" class="animable" fill="#fff"/><path d="M321.49 165.69v29.08c0 .62-.42.87-.95.56l-19-11-1.69-1a2.11 2.11 0 01-1-1.66v-29.02c0-.62.43-.86 1-.56L320.54 164a2.12 2.12 0 01.95 1.69z" style="transform-origin:310.17px 173.712px" id="els41agrlv8f" class="animable" fill="#fff"/><path d="M298.9 152.65V160a10.42 10.42 0 003.44 3.51c2.9 1.67 5.24.32 5.24-3a10.46 10.46 0 00-1.27-4.65l-6.44-3.72c-.54-.35-.97-.14-.97.51z" style="transform-origin:303.24px 158.099px" id="elko6dftod2a" class="animable" fill="#263238"/><path d="M321.49 184.38v10.39c0 .62-.42.87-.95.56l-19-11 5.69-12 3.6 7.82 5.74-11.62z" style="transform-origin:311.515px 181.997px" id="el16zm40ojapb" class="animable" fill="#263238"/><path d="M250.64 144.55L293 169a2.88 2.88 0 011.44 2.14c0 .72-.64.93-1.44.47l-42.32-24.44a2.87 2.87 0 01-1.48-2.17c0-.7.64-.92 1.44-.45z" style="transform-origin:271.82px 158.077px" id="elzrjnbk0d7jd" class="animable" fill="#fff"/><path d="M250.64 151.09L293 175.52a2.88 2.88 0 011.44 2.14c0 .72-.64.93-1.44.47l-42.36-24.43a2.88 2.88 0 01-1.44-2.14c0-.72.64-.93 1.44-.47z" style="transform-origin:271.82px 164.61px" id="elqvjwygixgpe" class="animable" fill="#fff"/><path d="M250.64 157.63L293 182.07a2.87 2.87 0 011.44 2.13c0 .73-.64.94-1.44.48l-42.32-24.44a2.88 2.88 0 01-1.44-2.14c-.04-.72.6-.93 1.4-.47z" style="transform-origin:271.839px 171.155px" id="el1sf2f8lke5m" class="animable" fill="#fff"/><path d="M250.64 164.18L293 188.61a2.88 2.88 0 011.44 2.14c0 .72-.64.93-1.44.47l-42.32-24.43a2.88 2.88 0 01-1.44-2.14c-.04-.72.6-.93 1.4-.47z" style="transform-origin:271.839px 177.7px" id="eljxkcqfjhd4s" class="animable" fill="#fff"/><path d="M217.56 318.57l-7.11-4.16a1.17 1.17 0 010-2.22l27.78-16a4.22 4.22 0 013.85 0l7.11 4.16a1.17 1.17 0 010 2.22l-27.78 16a4.28 4.28 0 01-3.85 0z" style="transform-origin:229.82px 307.376px" id="elwad0j9y3hje" class="animable" fill="#37474f"/><path d="M213.22 312.24l5.41-3.12a2.84 2.84 0 012.54 0l5.41 3.12a.78.78 0 010 1.47l-5.41 3.13a2.84 2.84 0 01-2.54 0l-5.41-3.13a.78.78 0 010-1.47z" style="transform-origin:219.9px 312.98px" id="elohi1o4qmw0j" class="animable" fill="#fff"/><path d="M217.25 312.87l2.94 1.7a.46.46 0 00.62-.17l1.41-2.44c.12-.22 0-.36-.22-.31l-4.7.91c-.24.04-.3.19-.05.31z" style="transform-origin:219.678px 313.134px" id="elwmytt759j6i" class="animable" fill="#37474f"/><path d="M225.77 307.62a2.22 2.22 0 002 0l13.29-7.67c.56-.33.59-.84.06-1.15a2.2 2.2 0 00-2 0l-13.3 7.67c-.55.33-.58.84-.05 1.15z" style="transform-origin:233.444px 303.209px" id="elcyf375asjg" class="animable" fill="#fff"/><path d="M229.33 309.65a2.22 2.22 0 002 0l6-3.5c.56-.33.59-.84.06-1.14a2.19 2.19 0 00-2 0l-6 3.5c-.56.33-.59.84-.06 1.14z" style="transform-origin:233.36px 307.328px" id="elkd8bevt8r48" class="animable" fill="#fff"/><path d="M204 310.74l-7.11-4.15a1.18 1.18 0 010-2.23l27.78-16a4.28 4.28 0 013.85 0l7.11 4.16a1.18 1.18 0 010 2.23l-27.78 16a4.22 4.22 0 01-3.85-.01z" style="transform-origin:216.26px 299.556px" id="elkjh6zmh6xl" class="animable" fill="#37474f"/><path d="M199.69 304.42l5.41-3.12a2.78 2.78 0 012.54 0l5.41 3.12a.78.78 0 010 1.47l-5.41 3.11a2.78 2.78 0 01-2.54 0l-5.41-3.12a.78.78 0 010-1.46z" style="transform-origin:206.377px 305.15px" id="el392p5cyx52" class="animable" fill="#fff"/><path d="M203.72 305.05l2.93 1.69a.46.46 0 00.63-.17l1.41-2.43c.12-.22 0-.36-.22-.31l-4.7.9c-.24.05-.27.19-.05.32z" style="transform-origin:206.154px 305.311px" id="elmtmp8c5ke8a" class="animable" fill="#37474f"/><path d="M212.24 299.79a2.22 2.22 0 002 0l13.29-7.68c.56-.32.59-.84.06-1.14a2.19 2.19 0 00-2 0l-13.3 7.68c-.55.35-.58.84-.05 1.14z" style="transform-origin:219.914px 295.378px" id="elg2s2dh16wl4" class="animable" fill="#fff"/><path d="M215.8 301.83a2.19 2.19 0 002 0l6-3.49c.56-.33.59-.84.06-1.15a2.2 2.2 0 00-2 0l-6 3.5c-.56.31-.59.83-.06 1.14z" style="transform-origin:219.83px 299.511px" id="ele7w9smatq7o" class="animable" fill="#fff"/><path d="M408.45 311.34l8.87-5.18c1.33-.77 1.33-2 0-2.78l-34.66-20a5.28 5.28 0 00-4.8 0l-8.86 5.18c-1.33.77-1.33 2 0 2.78l34.65 20a5.3 5.3 0 004.8 0z" style="transform-origin:393.16px 297.359px" id="elfm83ii9q9u" class="animable" fill="#37474f"/><path d="M389.32 289.4l-6.75-3.9a3.48 3.48 0 00-3.17 0l-6.75 3.9a1 1 0 000 1.83l6.75 3.89a3.48 3.48 0 003.17 0l6.75-3.89a1 1 0 000-1.83z" style="transform-origin:380.985px 290.31px" id="elbciblliujvh" class="animable" fill="#fff"/><path d="M380.64 288.52l-2.72 1.57c-.54.31-.48.66.12.78l5 1c.61.12.83-.21.51-.73l-1.38-2.23a1.16 1.16 0 00-1.53-.39z" style="transform-origin:380.623px 290.137px" id="elzbpy2ar0yu" class="animable" fill="#37474f"/><path d="M411.77 305.52a2.78 2.78 0 01-2.48 0l-16.58-9.58c-.71-.4-.74-1-.08-1.42a2.76 2.76 0 012.47 0l16.59 9.58c.71.4.74 1.04.08 1.42z" style="transform-origin:402.2px 300.02px" id="el67ytood5ahn" class="animable" fill="#fff"/><path d="M398.34 302.84a2.75 2.75 0 01-2.48 0l-7.5-4.37c-.7-.4-.73-1-.07-1.42a2.76 2.76 0 012.47 0l7.51 4.37c.73.4.73 1.04.07 1.42z" style="transform-origin:393.32px 299.947px" id="elgt26k5e4sgi" class="animable" fill="#fff"/><path d="M385 324.67l8.87-5.19c1.33-.77 1.33-2 0-2.78l-34.66-20a5.28 5.28 0 00-4.8 0l-8.88 5.18c-1.32.77-1.32 2 0 2.78l34.66 20a5.36 5.36 0 004.81.01z" style="transform-origin:369.704px 310.679px" id="elx1h68b77dae" class="animable" fill="#37474f"/><path d="M362.53 300.77a11 11 0 00-9.92 0c-2.74 1.58-2.74 4.15 0 5.73a11 11 0 009.92 0c2.74-1.58 2.74-4.15 0-5.73z" style="transform-origin:357.57px 303.635px" id="elm8ploz5qz2k" class="animable" fill="#fff"/><path d="M388.35 318.84a2.69 2.69 0 01-2.47 0l-16.59-9.58c-.7-.4-.73-1-.07-1.42a2.76 2.76 0 012.47 0l16.59 9.58c.72.4.72 1.04.07 1.42z" style="transform-origin:378.787px 313.344px" id="elmwi0tgaqzbh" class="animable" fill="#fff"/><path d="M374.93 316.16a2.72 2.72 0 01-2.48 0l-7.5-4.37c-.7-.4-.74-1-.07-1.42a2.76 2.76 0 012.47 0l7.51 4.37c.7.41.73 1.04.07 1.42z" style="transform-origin:369.903px 313.269px" id="elpsees0fq5je" class="animable" fill="#fff"/><path d="M354.61 305.06l-.32-.67c-.42-.88-.67-2.08.54-2.78a3.24 3.24 0 013 0c.64.37.78.91.42 1.36a3.33 3.33 0 012.36.24.91.91 0 010 1.72c-1.18.68-3.26.55-4.8.31z" style="transform-origin:357.583px 303.338px" id="elajfg3hcqpe6" class="animable" fill="#37474f"/></g><defs><filter id="active" height="200%"><feMorphology in="SourceAlpha" result="DILATED" operator="dilate" radius="2"/><feFlood flood-color="#32DFEC" flood-opacity="1" result="PINK"/><feComposite in="PINK" in2="DILATED" operator="in" result="OUTLINE"/><feMerge><feMergeNode in="OUTLINE"/><feMergeNode in="SourceGraphic"/></feMerge></filter><filter id="hover" height="200%"><feMorphology in="SourceAlpha" result="DILATED" operator="dilate" radius="2"/><feFlood flood-color="red" flood-opacity=".5" result="PINK"/><feComposite in="PINK" in2="DILATED" operator="in" result="OUTLINE"/><feMerge><feMergeNode in="OUTLINE"/><feMergeNode in="SourceGraphic"/></feMerge><feColorMatrix values="0 0 0 0 0 0 1 0 0 0 0 0 0 0 0 0 0 0 1 0"/></filter></defs></svg>