<?xml version="1.0" encoding="iso-8859-1"?>
<!-- Generator: Adobe Illustrator 19.0.0, SVG Export Plug-In . SVG Version: 6.00 Build 0)  -->
<svg version="1.1" id="Layer_1" xmlns="http://www.w3.org/2000/svg" xmlns:xlink="http://www.w3.org/1999/xlink" x="0px" y="0px"
	 viewBox="0 0 490.1 490.1" style="enable-background:new 0 0 490.1 490.1;" xml:space="preserve" fill='white'>
<g>
	<g>
		<path d="M423.85,74h-70.7l-5.4-28.1c-2.1-9.4-10.4-16.7-19.8-16.7h-58.4v-8.3c0-11.5-9.4-20.9-20.9-20.9
			c-11.5,0-20.9,9.4-20.9,20.9v8.3h-59.4c-9.4,0-17.7,7.3-19.8,16.7l-5.2,28.1h-77.1c-11.5,0-20.9,9.4-20.9,20.9v374.3
			c0,11.5,9.4,20.9,20.9,20.9h356.6c11.5,0,20.9-9.4,21.9-20.9V94.9C444.65,83.4,435.35,74,423.85,74z M311.25,68.8l10.4,54.2h-146
			l10.4-54.2H311.25z M402.95,449.3H86.05V115.7h49.5l-4.7,25c-2.9,18.6,13.6,24,19.8,24h196c11.5,0,20.9-9.4,19.8-19.8
			c0-2.1-5.4-29.2-5.4-29.2h41.9V449.3z"/>
		<path d="M292.45,259.6l-67.8,67.8l-27.1-27.1c-8.3-8.3-20.9-8.3-29.2,0s-8.3,20.9,0,29.2l41.7,41.7c12,11.5,25.1,4.8,30.2-1
			l81.3-81.3c8.3-8.3,8.3-20.9,0-29.2C313.35,251.3,300.85,251.3,292.45,259.6z"/>
	</g>
</g>
<g>
</g>
<g>
</g>
<g>
</g>
<g>
</g>
<g>
</g>
<g>
</g>
<g>
</g>
<g>
</g>
<g>
</g>
<g>
</g>
<g>
</g>
<g>
</g>
<g>
</g>
<g>
</g>
<g>
</g>
</svg>
