<svg class="animated" id="freepik_stories-vault" xmlns="http://www.w3.org/2000/svg" viewBox="0 0 500 500" version="1.1" xmlns:xlink="http://www.w3.org/1999/xlink" xmlns:svgjs="http://svgjs.com/svgjs"><style>svg#freepik_stories-vault:not(.animated) .animable {opacity: 0;}svg#freepik_stories-vault.animated #freepik--Plants--inject-1--inject-32 {animation: 1.5s Infinite  linear wind;animation-delay: 0s;}svg#freepik_stories-vault.animated #freepik--Money--inject-1--inject-32 {animation: 1.5s Infinite  linear floating;animation-delay: 0s;}            @keyframes wind {                0% {                    transform: rotate( 0deg );                }                25% {                    transform: rotate( 1deg );                }                75% {                    transform: rotate( -1deg );                }            }                    @keyframes floating {                0% {                    opacity: 1;                    transform: translateY(0px);                }                50% {                    transform: translateY(-10px);                }                100% {                    opacity: 1;                    transform: translateY(0px);                }            }        </style><g id="freepik--Floor--inject-1--inject-32" style="transform-origin: 244.56px 337.479px 0px;" class="animable"><path id="freepik--floor--inject-1--inject-32" d="M95.18,420.25c82.5,45.71,216.26,45.71,298.76,0s82.5-119.83,0-165.54S177.68,209,95.18,254.7,12.68,374.53,95.18,420.25Z" style="fill: rgb(245, 245, 245); transform-origin: 244.56px 337.479px 0px;" class="animable"></path></g><g id="freepik--Plants--inject-1--inject-32" style="transform-origin: 249.998px 261.965px 0px;" class="animable animator-active"><path d="M398.74,252.09c.58-7.22,6.15-19.53,14.39-28.3s21.43-13,29.57-9.46c7.57,3.29,5.91,13.44-4.09,19.45s-24.89,13.38-30,24.76l-9.88,13.66Z" style="fill: rgb(0, 157, 255); transform-origin: 423.075px 242.64px 0px;" id="el0uc5wryallb" class="animable"></path><g id="el8cc7kmqzkjj"><path d="M398.74,252.09c.58-7.22,6.15-19.53,14.39-28.3s21.43-13,29.57-9.46c7.57,3.29,5.91,13.44-4.09,19.45s-24.89,13.38-30,24.76l-9.88,13.66Z" style="opacity: 0.1; transform-origin: 423.075px 242.64px 0px;" class="animable"></path></g><path d="M397.7,261.54l-.15,0a.5.5,0,0,1-.32-.64c8.11-24.48,31.12-40.89,40.67-42.46a.49.49,0,0,1,.57.41.5.5,0,0,1-.41.58c-9.34,1.53-31.89,17.67-39.88,41.79A.5.5,0,0,1,397.7,261.54Z" style="fill: rgb(255, 255, 255); transform-origin: 417.84px 239.986px 0px;" id="el10mje0c4p1wn" class="animable"></path><path d="M399.82,281.89c1.49-4,7-10.26,15.44-15.15,9.36-5.41,20.81-7.32,23.78-11.87,3.57-5.47-.82-11.26-10-10.87s-26.21,11.54-30.28,30Z" style="fill: rgb(0, 157, 255); transform-origin: 419.52px 262.936px 0px;" id="elzq7ltghotma" class="animable"></path><path d="M399.4,274.37a.64.64,0,0,1-.23-.05.51.51,0,0,1-.22-.67c7.92-15.77,24.63-23.14,33.26-25a.5.5,0,0,1,.21,1c-8.45,1.83-24.83,9.05-32.57,24.48A.51.51,0,0,1,399.4,274.37Z" style="fill: rgb(255, 255, 255); transform-origin: 415.863px 261.505px 0px;" id="elpp4je4wirb" class="animable"></path><path d="M109.77,303.85l8.12-4.69s4.3-19.13-2.1-43.43S91,213.26,81.33,217.08s-9.36,11-4.06,18.28c4.4,6.06,18.67,20.6,25.54,37.42A92.86,92.86,0,0,1,109.77,303.85Z" style="fill: rgb(224, 224, 224); transform-origin: 96.4502px 260.211px 0px;" id="el3f2ohi543p6" class="animable"></path><path d="M114.09,301.85H114a.5.5,0,0,1-.43-.57c5.56-40-19.24-72.34-30.52-79.08a.5.5,0,0,1-.17-.69.49.49,0,0,1,.68-.17c11.45,6.85,36.62,39.61,31,80.08A.51.51,0,0,1,114.09,301.85Z" style="fill: rgb(255, 255, 255); transform-origin: 99.0868px 261.559px 0px;" id="el2x644y6j5y4" class="animable"></path><path d="M109.77,303.85l-12.19,7a23.32,23.32,0,0,0-8.12-2.35c-5.19-.65-8.64-5.65-8.13-9.38.35-2.52,1.15-5.39.77-7.93-.35-2.28-2.56-4.34-4.62-5.13a17.26,17.26,0,0,0-5.42-.78c-2.93-.13-6-.47-8.47-2s-4.29-4.59-3.48-7.41a9.88,9.88,0,0,1,2.55-3.86,12.3,12.3,0,0,0,2.72-3.75c1.08-2.83-.82-4.62-3.1-5.93-8-4.61-11.6-8.24-8.72-11.72s10.8-5,18.91-.74,14.83-.31,20.18.59c8.38,1.4,8.88,7.32,7.84,12.47s9.3,7.32,11.91,13.47C114.29,280.91,115.87,295.64,109.77,303.85Z" style="fill: rgb(235, 235, 235); transform-origin: 83.3351px 279.064px 0px;" id="elwkhsi2dhs6" class="animable"></path><path d="M105.7,306.69a.5.5,0,0,1-.5-.48c-1-28.55-37.59-53.45-46.22-54.87a.5.5,0,0,1-.41-.58.49.49,0,0,1,.57-.41c9.09,1.5,46.06,26.21,47.06,55.83a.49.49,0,0,1-.48.51Z" style="fill: rgb(255, 255, 255); transform-origin: 82.3814px 278.516px 0px;" id="elzdqc4c60da" class="animable"></path></g><g id="freepik--Character--inject-1--inject-32" style="transform-origin: 277.731px 219.014px 0px;" class="animable"><g id="freepik--character--inject-1--inject-32" style="transform-origin: 399.636px 181.036px 0px;" class="animable"><path d="M431.16,170.72c-1.78-.33-3.26-1.18-5.8-1.45a10.84,10.84,0,0,1-5-1.38c-2-1.09-6.19-6.16-9.61-11.28a60.31,60.31,0,0,1-7.69-19c-1.45-8.14-1.73-20-2.29-24.77s-2.55-6.16-5.14-7.24c-3.05-1.27-6.24.57-6.27,7.47a128.21,128.21,0,0,0,3.55,28.19,63.88,63.88,0,0,0,8.74,19.11c3.6,5.44,7.31,9,12,13.54,1.29,1.23,1.94,2.46,4.13,5.09a14.47,14.47,0,0,0,3,3,18.12,18.12,0,0,0,4.73,2.23,12.38,12.38,0,0,0,6.53.22,7.87,7.87,0,0,0,3.22-1.63,5.18,5.18,0,0,0,1.75-3.1A1.39,1.39,0,0,0,437,179a1.7,1.7,0,0,0-1-.8c-2.28-1-4.89-1.68-7.05-2.89-1.82-1-3-2-2.57-2.13s1.42.54,3.24.59,3.48-.93,3.43-1.9S432.94,171.05,431.16,170.72Z" style="fill: rgb(255, 168, 167); transform-origin: 413.206px 145.006px 0px;" id="elxp76pp8vx4o" class="animable"></path><path d="M390.34,135.26s-1.66-13.23-2.09-20.58,1.82-9.48,4.58-11.32c6.09-.47,9.58,5.9,10.61,10.15S405,128.35,405,135.24,414.63,162,414.63,162s-4.86,2.25-6.33,6.66c0,0-7.73-9.12-10.6-13.77C392.44,146.34,391,141.11,390.34,135.26Z" style="fill: rgb(0, 157, 255); transform-origin: 401.414px 135.998px 0px;" id="eltxu7lwaah0b" class="animable"></path><g id="ellgzv9f96i08"><path d="M390.34,135.26s-1.66-13.23-2.09-20.58,1.82-9.48,4.58-11.32c6.09-.47,9.58,5.9,10.61,10.15S405,128.35,405,135.24,414.63,162,414.63,162s-4.86,2.25-6.33,6.66c0,0-7.73-9.12-10.6-13.77C392.44,146.34,391,141.11,390.34,135.26Z" style="opacity: 0.1; transform-origin: 401.414px 135.998px 0px;" class="animable"></path></g><g id="el9gpr9vu350t"><rect x="365" y="275.67" width="8.29" height="14.18" style="fill: rgb(255, 168, 167); transform-origin: 369.145px 282.76px 0px; transform: rotate(180deg);" class="animable"></rect></g><polygon points="392.02 279.55 400.3 279.84 400.72 264.83 392.44 264.54 392.02 279.55" style="fill: rgb(255, 168, 167); transform-origin: 396.37px 272.19px 0px;" id="elevpysya9d5a" class="animable"></polygon><path d="M373.29,285.77v-1.19c.79.35,2.63,7.38,5.92,10.37,2.61,2.39,6.18,5.14,7.09,7.8s-5,4.29-7.41,3.86c-2.84-.51-7.75-2.5-9-4.35s-1.81-4.59-2.81-5.95-3.32-2.87-3.86-4.44c-.3-.86,0-2.75.47-4.35s.8-3.07,1.3-2.94v.91a6.65,6.65,0,0,0,4.15,1.4C370.36,286.93,373.3,286.69,373.29,285.77Z" style="fill: rgb(38, 50, 56); transform-origin: 374.747px 295.625px 0px;" id="elt6qahcenvjg" class="animable"></path><path d="M400.39,277.28c.43,0,.78.62,1.73,1.65a18.26,18.26,0,0,0,4.87,3.51c3.11,1.55,9.14,3.94,11.87,5.17,1.7.77,1.62,2.83-.14,4s-6,2-11.13.88c-2.78-.63-6.41-3.2-8.7-3.06s-6.59.11-8.28-1.06-1-3.66-.54-5.8c.52-2.34,1.27-5.92,2.05-5.76l0,.74c1,1.51,6.07,2.12,8.26,1Z" style="fill: rgb(38, 50, 56); transform-origin: 404.811px 284.912px 0px;" id="el13dvrmdt8o5e" class="animable"></path><path d="M365.55,163.24c0,7.91,0,57.31,0,57.31-.19,2.27-1.88,6.22-2.33,15.91-.56,11.88-1,44.45-1,44.45s6.19,4,11.67.14c0,0,7.36-46.7,8.84-58.47,1.3-10.27,3.49-38.18,3.49-38.18l5,42s-1.35,7.72-1.64,13.17,0,33.67,0,33.67,6.54,3.76,11.35,1.19c0,0,5.67-43.58,6.53-48.5s-3.11-62.74-3.11-62.74Z" style="fill: rgb(38, 50, 56); transform-origin: 384.901px 222.96px 0px;" id="el7x6swqw04si" class="animable"></path><path d="M386.16,184.4a30.69,30.69,0,0,0,11.54-6.62s-2.22,4.17-8.84,8.05l.14,22.58Z" id="el4ypuwevsfj" style="transform-origin: 391.93px 193.095px 0px;" class="animable"></path><path d="M373.51,106a18.74,18.74,0,0,0-3.42.79c-2.28.89-3.32,3.69-3.86,6.16a28.79,28.79,0,0,0-.68,6.3v44c5.81,6.32,26.06,9.26,38.75,0,0,0-.25-38.86-1.2-45.24-1.65-11.09-7-15-12.29-14.63L378,105.2Z" style="fill: rgb(0, 157, 255); transform-origin: 384.925px 136.25px 0px;" id="elr73prl7k6qh" class="animable"></path><path d="M378.41,125.17s6.94-.28,9.79-1.39v-1.39c-2.85,1.11-9.79,1.39-9.79,1.39Z" style="fill: rgb(55, 71, 79); transform-origin: 383.305px 123.78px 0px;" id="elaypxfli5fus" class="animable"></path><path d="M390.13,111.6,378,102.67l-.05-2.2s-2.57.39-3.2,5.31a20.85,20.85,0,0,0,9.29,9.9l2.52-4.49Z" style="fill: rgb(0, 157, 255); transform-origin: 382.44px 108.075px 0px;" id="elh7fgtqu8wi" class="animable"></path><g id="elvx2oi06e9lr"><path d="M390.13,111.6,378,102.67l-.05-2.2s-2.57.39-3.2,5.31a20.85,20.85,0,0,0,9.29,9.9l2.52-4.49Z" style="opacity: 0.1; transform-origin: 382.44px 108.075px 0px;" class="animable"></path></g><path d="M390.8,101a6,6,0,0,1,3.94,2.37c1.2,2,.92,9.55.92,9.55l-3.19-3.66-2.34,2.34c.25-2.53.68-6.77.68-6.77Z" style="fill: rgb(0, 157, 255); transform-origin: 392.909px 106.96px 0px;" id="elhb4ue9y7d3c" class="animable"></path><g id="elw8u1z5yifo"><path d="M390.8,101a6,6,0,0,1,3.94,2.37c1.2,2,.92,9.55.92,9.55l-3.19-3.66-2.34,2.34c.25-2.53.68-6.77.68-6.77Z" style="opacity: 0.1; transform-origin: 392.909px 106.96px 0px;" class="animable"></path></g><path d="M372.84,85s1.9,9,2.67,10.43a4,4,0,0,0,2.34,1.89l-.13-6.3Z" style="fill: rgb(38, 50, 56); transform-origin: 375.345px 91.16px 0px;" id="elrpsy6mh6ji" class="animable"></path><path d="M375.23,72.17a4.42,4.42,0,0,0-3.65,1.28c-1.57,1.61-.7,6.63,1.26,11.55l3.59.41Z" style="fill: rgb(38, 50, 56); transform-origin: 373.6px 78.7752px 0px;" id="elmsui3kfljqe" class="animable"></path><path d="M377.51,85.41c-.72.43-1.75-1-2.64-1.88s-3.79-2.2-5.23.85,1.27,7.21,3.56,7.92c3.93,1.24,4.52-1.28,4.52-1.28l.3,14.18s5.13,5.45,12.11,6.4l.68-6.77v-4.32a24.78,24.78,0,0,0,5.3.27c2.9-.45,4.72-2.73,5.59-5.86,1.41-5,1.95-9.09.75-19-1.31-10.84-13.92-11-20.72-6.67S377.51,85.41,377.51,85.41Z" style="fill: rgb(255, 168, 167); transform-origin: 386.175px 89.0992px 0px;" id="elk10onv1tg3" class="animable"></path><path d="M377.51,86.63c-.37,0-1.74-2.28-2.64-3.1-1.24-1.13.36-11.36.36-11.36,1.49-7,13.66-8,20.46-5.77,3.53,1.09,5.81,2.68,5.68,5.66-.45,2-4.76,3-6.4,3.21-4.6.56-11.69-.68-12.67-.81-1.33-.18-1.7.24-2.42,3.78C379.25,81.34,378.72,86.6,377.51,86.63Z" style="fill: rgb(38, 50, 56); transform-origin: 387.887px 75.9848px 0px;" id="el4iva0eit8nf" class="animable"></path><path d="M375.24,73l-4.36-2.34a2.4,2.4,0,0,1,3.3-1.09A2.6,2.6,0,0,1,375.24,73Z" style="fill: rgb(38, 50, 56); transform-origin: 373.197px 71.1435px 0px;" id="el6reiulfweb5" class="animable"></path><path d="M390.8,100.51s-6.45-1.3-8.71-2.5A7.47,7.47,0,0,1,379,94.92a10.09,10.09,0,0,0,1.77,3.64c1.65,2.11,10.06,3.67,10.06,3.67Z" style="fill: rgb(242, 143, 143); transform-origin: 384.915px 98.575px 0px;" id="el8kjjttdsbo" class="animable"></path><path d="M389.66,85a1.3,1.3,0,1,1-1.29-1.35A1.32,1.32,0,0,1,389.66,85Z" style="fill: rgb(38, 50, 56); transform-origin: 388.361px 84.95px 0px;" id="elpxpm4grxuio" class="animable"></path><path d="M388.29,80.1l-2.77,1.53a1.65,1.65,0,0,1,.65-2.2A1.54,1.54,0,0,1,388.29,80.1Z" style="fill: rgb(38, 50, 56); transform-origin: 386.811px 80.4356px 0px;" id="elvpeqimrjnye" class="animable"></path><path d="M390.22,92.74l2.95,1.11a1.54,1.54,0,0,1-2,1A1.64,1.64,0,0,1,390.22,92.74Z" style="fill: rgb(242, 143, 143); transform-origin: 391.642px 93.8414px 0px;" id="elghf1n1zf006" class="animable"></path><path d="M401.2,81.18l-2.53-1.94a1.53,1.53,0,0,1,2.2-.34A1.69,1.69,0,0,1,401.2,81.18Z" style="fill: rgb(38, 50, 56); transform-origin: 400.086px 79.8787px 0px;" id="el9x36qx1q76f" class="animable"></path><path d="M400.42,84.62a1.3,1.3,0,1,1-1.29-1.35A1.32,1.32,0,0,1,400.42,84.62Z" style="fill: rgb(38, 50, 56); transform-origin: 399.121px 84.57px 0px;" id="el6u051xo1clc" class="animable"></path><polygon points="393.42 82.2 393.85 89.98 397.91 88.6 393.42 82.2" style="fill: rgb(242, 143, 143); transform-origin: 395.665px 86.09px 0px;" id="elrgvaccqm06" class="animable"></polygon><path d="M380.93,76.87s12.86,7.18,21.8,1.71-2.64-10.16-2.64-10.16Z" style="fill: rgb(38, 50, 56); transform-origin: 393.524px 74.5276px 0px;" id="elw9iryy2uz5r" class="animable"></path><path d="M400,56.16c-7.66-1.19-16-1.55-25.62,3.13s-11.75,10.93-11.75,10.93,9.82,2.67,17.81.38S400,56.16,400,56.16Z" style="fill: rgb(0, 157, 255); transform-origin: 381.315px 63.4605px 0px;" id="el1tf6emukvp1j" class="animable"></path><g id="eljnrhlcqgez9"><path d="M400,56.16c-7.66-1.19-16-1.55-25.62,3.13s-11.75,10.93-11.75,10.93,9.82,2.67,17.81.38S400,56.16,400,56.16Z" style="fill: rgb(255, 255, 255); opacity: 0.4; transform-origin: 381.315px 63.4605px 0px;" class="animable"></path></g><path d="M368,73.18s-4.92-1.73-5.37-3a33.59,33.59,0,0,0,11.42-2.15c6.39-2.32,13-9.34,20.22-11.31s10.26,1.31,10.26,1.31a34.74,34.74,0,0,1-4.08,8.72s-2.23,5.12-10.69,7.28S368,73.18,368,73.18Z" style="fill: rgb(0, 157, 255); transform-origin: 383.58px 65.4502px 0px;" id="elkm9f7eq6xj8" class="animable"></path><path d="M368,73.18l.4,1.35a3.06,3.06,0,0,0,1.89,1.94A34.8,34.8,0,0,0,390,76c6-1.83,8.63-3.69,9.7-5a3.25,3.25,0,0,0,1-2.89l-.2-1.33s-1.84,2.78-11.56,5.88S368,73.18,368,73.18Z" style="fill: rgb(55, 71, 79); transform-origin: 384.37px 72.2249px 0px;" id="elc5d7uuhyjod" class="animable"></path><path d="M395,59.53C394.94,61,393.36,64,391.26,63v3.77c0,2.36,1.39,3,3.62,2.25a5.64,5.64,0,0,0,3.89-5.26c0-.72,0-3.25,0-3.25C397.12,62.93,395,60.11,395,59.53Z" style="fill: rgb(250, 250, 250); transform-origin: 395.015px 64.4237px 0px;" id="elc59hvmmiqyv" class="animable"></path></g><g id="freepik--Vault--inject-1--inject-32" style="transform-origin: 244.37px 241.031px 0px;" class="animable"><path d="M240,100.48l-117.26,67.7a9.58,9.58,0,0,0-4.33,7.5V306.39a9.56,9.56,0,0,0,4.33,7.5L240,381.6a9.57,9.57,0,0,0,8.66,0L366,313.89a9.56,9.56,0,0,0,4.33-7.5V175.68a9.58,9.58,0,0,0-4.33-7.5l-117.27-67.7A9.57,9.57,0,0,0,240,100.48Z" style="fill: rgb(55, 71, 79); transform-origin: 244.37px 241.031px 0px;" id="el7p8vzba4dem" class="animable"></path><path d="M244.37,241.92V382.63a8.83,8.83,0,0,1-4.33-1l-117.27-67.7a9.58,9.58,0,0,1-4.33-7.5V175.68a9.69,9.69,0,0,1,3.89-7.22c-1.94,1.39-1.79,3.43.44,4.72L240,240.88A8.86,8.86,0,0,0,244.37,241.92Z" style="fill: rgb(38, 50, 56); transform-origin: 181.405px 275.547px 0px;" id="el8bumz18r85l" class="animable"></path><path d="M366,168.18l-117.27-67.7a9.57,9.57,0,0,0-8.66,0l-117.26,67.7c-2.39,1.38-2.39,3.62,0,5L240,240.88a9.57,9.57,0,0,0,8.66,0L366,173.18C368.35,171.8,368.35,169.56,366,168.18Z" style="fill: rgb(69, 90, 100); transform-origin: 244.39px 170.68px 0px;" id="elcton27yrief" class="animable"></path><path d="M254.65,246.82,360,186c1.19-.69,2.16-.13,2.16,1.25v117A4.8,4.8,0,0,1,360,308L254.65,368.77c-1.19.69-2.16.14-2.16-1.25V250.57A4.77,4.77,0,0,1,254.65,246.82Z" style="fill: rgb(38, 50, 56); transform-origin: 307.325px 277.386px 0px;" id="elz8ezfwon18p" class="animable"></path><path d="M254.49,250.57a2.82,2.82,0,0,1,1.16-2l104.5-60.34v116a2.85,2.85,0,0,1-1.16,2L254.49,366.56Z" style="fill: rgb(55, 71, 79); transform-origin: 307.32px 277.395px 0px;" id="eliqyx5c863eo" class="animable"></path><path d="M252.86,257.23,275.73,244a1.54,1.54,0,0,1,1.5,0l3.7,2.14-24,13.4Z" style="fill: rgb(69, 90, 100); transform-origin: 266.895px 251.673px 0px;" id="elv249y434ydn" class="animable"></path><path d="M281.3,247v15.76A2.88,2.88,0,0,1,280,265l-23.08,13.33V259.57L280,246.25C280.71,245.84,281.3,246.17,281.3,247Z" style="fill: rgb(38, 50, 56); transform-origin: 269.11px 262.202px 0px;" id="elyaynd69im3" class="animable"></path><polygon points="252.86 257.23 256.92 259.57 256.92 278.34 252.86 275.99 252.86 257.23" id="elwm2yadko61a" style="transform-origin: 254.89px 267.785px 0px;" class="animable"></polygon><path d="M266.7,261.1c1.12-.65,2-.13,2,1.17a4.51,4.51,0,0,1-2,3.52c-1.12.64-2,.12-2-1.18A4.47,4.47,0,0,1,266.7,261.1Z" style="fill: rgb(69, 90, 100); transform-origin: 266.7px 263.442px 0px;" id="el0mkjmqhhob2m" class="animable"></path><path d="M274.83,256.41c1.12-.65,2-.13,2,1.17a4.51,4.51,0,0,1-2,3.52c-1.13.64-2,.12-2-1.18A4.49,4.49,0,0,1,274.83,256.41Z" style="fill: rgb(69, 90, 100); transform-origin: 274.83px 258.752px 0px;" id="ellu2hqx3b8x" class="animable"></path><path d="M252.48,257.45l-5.62,3.25a5,5,0,0,1-5,0l-4.11-2.37a1.49,1.49,0,0,0-1.5,0l-3.68,2.12,9.29,4.94a5,5,0,0,0,5,0l9.68-5.59Z" style="fill: rgb(69, 90, 100); transform-origin: 244.555px 261.755px 0px;" id="elo90pd6xrns9" class="animable"></path><path d="M233.47,279.31l8.39,4.85a5,5,0,0,0,5,0l9.68-5.59V259.8l-9.68,5.59a5,5,0,0,1-5,0l-8.39-4.84c-.71-.41-1.3-.08-1.3.75v15.76A2.88,2.88,0,0,0,233.47,279.31Z" style="fill: rgb(55, 71, 79); transform-origin: 244.355px 272.315px 0px;" id="elgfr79xhvic6" class="animable"></path><path d="M244.39,284.82a4.89,4.89,0,0,0,2.48-.67l9.68-5.59V259.8l-9.68,5.59a4.89,4.89,0,0,1-2.48.67Z" style="fill: rgb(38, 50, 56); transform-origin: 250.47px 272.31px 0px;" id="elgbcvw7e6je" class="animable"></path><path d="M252.86,337l22.87-13.2a1.49,1.49,0,0,1,1.5,0l3.7,2.14-24,13.4Z" style="fill: rgb(69, 90, 100); transform-origin: 266.895px 331.469px 0px;" id="elftc8objr8e" class="animable"></path><path d="M281.3,326.74V342.5a2.88,2.88,0,0,1-1.3,2.25l-23.08,13.32V339.31L280,326C280.71,325.58,281.3,325.91,281.3,326.74Z" style="fill: rgb(38, 50, 56); transform-origin: 269.11px 341.944px 0px;" id="el73k6cdc39m" class="animable"></path><polygon points="252.86 336.97 256.92 339.31 256.92 358.07 252.86 355.73 252.86 336.97" id="elzoyct90jlg" style="transform-origin: 254.89px 347.52px 0px;" class="animable"></polygon><path d="M266.7,340.83c1.12-.65,2-.12,2,1.17a4.48,4.48,0,0,1-2,3.52c-1.12.65-2,.13-2-1.17A4.51,4.51,0,0,1,266.7,340.83Z" style="fill: rgb(69, 90, 100); transform-origin: 266.7px 343.176px 0px;" id="elugbcyro91wa" class="animable"></path><path d="M274.83,336.14c1.12-.65,2-.12,2,1.17a4.49,4.49,0,0,1-2,3.52c-1.13.65-2,.13-2-1.17A4.5,4.5,0,0,1,274.83,336.14Z" style="fill: rgb(69, 90, 100); transform-origin: 274.83px 338.486px 0px;" id="el2682ovpswq9" class="animable"></path><path d="M252.48,337.19l-5.62,3.25a5,5,0,0,1-5,0l-4.11-2.37a1.49,1.49,0,0,0-1.5,0l-3.68,2.12,9.29,4.94a5,5,0,0,0,5,0l9.68-5.59Z" style="fill: rgb(69, 90, 100); transform-origin: 244.555px 341.495px 0px;" id="elgl7j0sq08po" class="animable"></path><path d="M233.47,359.05l8.39,4.84a5,5,0,0,0,5,0l9.68-5.59V339.54l-9.68,5.59a5,5,0,0,1-5,0l-8.39-4.84c-.71-.42-1.3-.08-1.3.75V356.8A2.9,2.9,0,0,0,233.47,359.05Z" style="fill: rgb(55, 71, 79); transform-origin: 244.355px 352.05px 0px;" id="ellp9enufcpi" class="animable"></path><path d="M244.39,364.56a5,5,0,0,0,2.48-.67l9.68-5.59V339.54l-9.68,5.59a5.1,5.1,0,0,1-2.48.67Z" style="fill: rgb(38, 50, 56); transform-origin: 250.47px 352.05px 0px;" id="elu15is8iodll" class="animable"></path><path d="M323.72,260.93l.68-1.18-4.13-2.39,0,0-.08,0h0c-3.3-1.84-7.82-1.55-12.82,1.34-10.09,5.83-18.28,20-18.28,31.66,0,5.72,2,9.76,5.18,11.72h0l.12.07.12.07,4.13,2.39.69-1.21a16.53,16.53,0,0,0,8-2.49c10.1-5.83,18.28-20,18.28-31.66A16.7,16.7,0,0,0,323.72,260.93Z" style="fill: rgb(38, 50, 56); transform-origin: 307.355px 280.407px 0px;" id="elfv3aywn8epk" class="animable"></path><g id="elg34txbj2qpf"><ellipse cx="312.04" cy="282.45" rx="25.85" ry="14.92" style="fill: rgb(38, 50, 56); transform-origin: 312.04px 282.45px 0px; transform: rotate(-60deg);" class="animable"></ellipse></g><g id="elwjaci47hf1e"><ellipse cx="311.38" cy="282.08" rx="25.85" ry="14.92" style="fill: rgb(55, 71, 79); transform-origin: 311.38px 282.08px 0px; transform: rotate(-60deg);" class="animable"></ellipse></g><path d="M313.26,268c-.41.15-.66-.19-.56-.76l.84-4.86a1.79,1.79,0,0,1,.92-1.3c.4-.15.66.19.56.76l-.84,4.85A1.79,1.79,0,0,1,313.26,268Z" style="fill: rgb(0, 157, 255); transform-origin: 313.86px 264.54px 0px;" id="elfxwipqynyvk" class="animable"></path><path d="M306.37,273.25a.37.37,0,0,1-.52-.2l-1.36-3.18a1.68,1.68,0,0,1,.41-1.51c.39-.46.83-.52,1-.15l1.36,3.18a1.66,1.66,0,0,1-.41,1.5A1.06,1.06,0,0,1,306.37,273.25Z" style="fill: rgb(0, 157, 255); transform-origin: 305.875px 270.631px 0px;" id="elj3hkkqs3ck7" class="animable"></path><path d="M301.11,282.3a.6.6,0,0,1-.22,0l-3-.29c-.36,0-.47-.54-.25-1.13s.69-1,1-1l3,.29c.35,0,.47.54.25,1.13A1.64,1.64,0,0,1,301.11,282.3Z" style="fill: rgb(0, 157, 255); transform-origin: 299.764px 281.095px 0px;" id="elyhwog56ese" class="animable"></path><path d="M295.93,294.41c-.32.12-.56-.05-.58-.45a1.91,1.91,0,0,1,.7-1.48l3.55-2.71c.42-.32.79-.18.82.32a1.94,1.94,0,0,1-.7,1.48l-3.56,2.71A.78.78,0,0,1,295.93,294.41Z" style="fill: rgb(0, 157, 255); transform-origin: 297.885px 292.023px 0px;" id="el7gqdxf5u2qf" class="animable"></path><path d="M299.39,302.53a.4.4,0,0,1-.4,0c-.27-.21-.23-.83.09-1.38l2.72-4.68c.32-.55.8-.82,1.07-.61s.23.84-.09,1.39l-2.71,4.67A1.48,1.48,0,0,1,299.39,302.53Z" style="fill: rgb(0, 157, 255); transform-origin: 300.93px 299.186px 0px;" id="elu6scd72xais" class="animable"></path><path d="M307.16,303.26c-.41.15-.66-.19-.56-.76l.84-4.85a1.8,1.8,0,0,1,.91-1.31c.41-.15.66.19.56.76l-.84,4.86A1.81,1.81,0,0,1,307.16,303.26Z" style="fill: rgb(0, 157, 255); transform-origin: 307.755px 299.8px 0px;" id="el8el8arwkowp" class="animable"></path><path d="M316.24,296.34a.37.37,0,0,1-.52-.21L314.36,293a1.66,1.66,0,0,1,.41-1.5c.39-.46.84-.53,1-.15l1.35,3.17a1.68,1.68,0,0,1-.41,1.51A1.23,1.23,0,0,1,316.24,296.34Z" style="fill: rgb(0, 157, 255); transform-origin: 315.74px 293.743px 0px;" id="el9ug6xaarta" class="animable"></path><path d="M323.18,284.4a.56.56,0,0,1-.22,0l-3-.29c-.35,0-.46-.54-.24-1.13s.68-1,1-1l3,.29c.36,0,.47.54.25,1.13A1.7,1.7,0,0,1,323.18,284.4Z" style="fill: rgb(0, 157, 255); transform-origin: 321.845px 283.195px 0px;" id="el53jhtic8a68" class="animable"></path><path d="M321.77,274.71c-.31.12-.55-.06-.58-.46a1.92,1.92,0,0,1,.7-1.47l3.56-2.72c.42-.32.78-.17.82.33a2,2,0,0,1-.7,1.47L322,274.58A.94.94,0,0,1,321.77,274.71Z" style="fill: rgb(0, 157, 255); transform-origin: 323.73px 272.319px 0px;" id="el2g4odynuvg7" class="animable"></path><path d="M319.14,268.56a.4.4,0,0,1-.4,0c-.27-.21-.23-.83.09-1.38l2.71-4.68c.32-.55.8-.82,1.08-.61s.23.84-.09,1.39l-2.72,4.67A1.47,1.47,0,0,1,319.14,268.56Z" style="fill: rgb(0, 157, 255); transform-origin: 320.682px 265.216px 0px;" id="el4prpn8wgvak" class="animable"></path><path d="M320.25,271.24h0c-1.74-2.58-5.06-3.1-8.87-.9-5.6,3.24-10.15,11.12-10.15,17.59,0,4.63,2.32,7.27,5.69,7.24h0l7.81.18,9.83-18Z" style="fill: rgb(38, 50, 56); transform-origin: 312.895px 282.154px 0px;" id="elyuw7dkhpiy8" class="animable"></path><path d="M318,276.85A16.76,16.76,0,0,0,310.46,290c0,4.83,3.39,6.78,7.57,4.37a16.74,16.74,0,0,0,7.57-13.11C325.6,276.4,322.21,274.44,318,276.85Z" style="fill: rgb(69, 90, 100); transform-origin: 318.03px 285.611px 0px;" id="elbd55xdcb8bq" class="animable"></path><path d="M354.14,244.13a9,9,0,0,0-4.49-8.16l-13.54-7.81-.06,0h0a4.07,4.07,0,0,0-4,.42,12.7,12.7,0,0,0-5.74,10c0,2,.8,3.42,2.07,3.9h0l.08,0,13,4.12a7.25,7.25,0,0,1,5.05,6.54L348,280.91h0a2.35,2.35,0,0,0,4.69,0h0Z" style="fill: rgb(38, 50, 56); transform-origin: 340.229px 255.463px 0px;" id="el5qxeatcleo4" class="animable"></path></g><g id="freepik--character-arm--inject-1--inject-32" style="transform-origin: 356.141px 148.242px 0px;" class="animable"><path d="M358.1,118.33s-16.85,25.07-19.68,31.24c-.95,2.09-1.77,3.19,1.65,6.71s16,14,17.23,15.57,1.18,4,2.13,6.15-.14,7.9.72,11.44,10.14-1.66,10.14-10.71c0-5.08.17-8-2.93-10.39s-16-17.51-16-17.51l11.72-17.67Z" style="fill: rgb(255, 168, 167); transform-origin: 353.941px 154.445px 0px;" id="ely83hc9wnm7h" class="animable"></path><path d="M361.57,138.19c4-5.27,10.57-13.08,10.57-13.08,3.06-4.27,5.55-15.32.71-19-3.28-.49-6.38-.4-11,5.34s-9.15,12.08-13.95,19.13-11.19,17.31-11.19,21,7.44,9.85,14.15,14.42a8.9,8.9,0,0,1,7.92-6.63l-6.3-8.81S357.58,143.46,361.57,138.19Z" style="fill: rgb(0, 157, 255); transform-origin: 356.141px 135.962px 0px;" id="elncm3oh3hf5" class="animable"></path><g id="elg4n33v30hks"><path d="M361.57,138.19c4-5.27,10.57-13.08,10.57-13.08,3.06-4.27,5.55-15.32.71-19-3.28-.49-6.38-.4-11,5.34s-9.15,12.08-13.95,19.13-11.19,17.31-11.19,21,7.44,9.85,14.15,14.42a8.9,8.9,0,0,1,7.92-6.63l-6.3-8.81S357.58,143.46,361.57,138.19Z" style="opacity: 0.05; transform-origin: 356.141px 135.962px 0px;" class="animable"></path></g><path d="M362,113.84a6.78,6.78,0,0,1,4.54,2.71l.17-.27a.71.71,0,0,0-.08-.89,7.14,7.14,0,0,0-3.68-2.2.71.71,0,0,0-.72.3Z" style="fill: rgb(55, 71, 79); transform-origin: 364.415px 114.864px 0px;" id="ely0z4i6kougb" class="animable"></path><path d="M364.13,119.23c-.91,1.39-2.49,2-3.54,1.28s-1.16-2.36-.25-3.76,2.5-2,3.54-1.28S365,117.84,364.13,119.23Z" style="fill: rgb(55, 71, 79); transform-origin: 362.225px 117.989px 0px;" id="eltwxjmx2ar2h" class="animable"></path></g></g><g id="freepik--Money--inject-1--inject-32" style="transform-origin: 147.415px 351.48px 0px;" class="animable"><g id="freepik--money--inject-1--inject-32" style="transform-origin: 147.415px 351.48px 0px;" class="animable"><polygon points="231.13 368.8 119.51 304.36 63.7 336.58 175.32 401.02 231.13 368.8" style="fill: rgb(0, 157, 255); transform-origin: 147.415px 352.69px 0px;" id="elapi2jwrk8rt" class="animable"></polygon><g id="elq670tcbwa0m"><path d="M69.57,336.58l105.75,61,49.94-28.83-105.75-61Zm2.94,0,47-27.14,102.81,59.35-47,27.14Z" style="opacity: 0.15; transform-origin: 147.415px 352.665px 0px;" class="animable"></path></g><g id="eloymznu359m"><g style="opacity: 0.15; transform-origin: 147.415px 352.688px 0px;" class="animable"><path d="M149.5,369.37c-7.61,0-15.41-1.75-21.43-5.23h0c-5.86-3.38-9.21-8-9.21-12.65,0-4.28,2.75-8.22,7.74-11.11,10.67-6.15,28.68-5.77,40.16.85,5.85,3.38,9.21,8,9.21,12.66,0,4.27-2.75,8.22-7.74,11.1S156.41,369.37,149.5,369.37ZM145.33,337c-6.73,0-13.29,1.41-18.23,4.26-4.67,2.7-7.24,6.33-7.24,10.24,0,4.29,3.17,8.59,8.71,11.79h0c11.2,6.46,28.77,6.85,39.16.85,4.67-2.7,7.24-6.34,7.24-10.24,0-4.3-3.17-8.59-8.71-11.79C160.38,338.71,152.75,337,145.33,337Z" id="elxayvv29nvqq" style="transform-origin: 147.415px 352.688px 0px;" class="animable"></path></g></g><g id="elqm4dmmjghdq"><g style="opacity: 0.1; transform-origin: 147.415px 352.675px 0px;" class="animable"><path d="M149.5,365.77c-7.23,0-14.38-1.73-19.62-4.76-4.71-2.72-7.41-6.19-7.41-9.52,0-2.93,2.11-5.76,5.94-8,4.37-2.52,10.38-3.91,16.92-3.91,7.23,0,14.38,1.74,19.62,4.76,4.71,2.72,7.41,6.19,7.41,9.53,0,2.93-2.11,5.76-5.94,8C162.05,364.38,156,365.77,149.5,365.77Z" id="elbok2n7jo2ph" style="transform-origin: 147.415px 352.675px 0px;" class="animable"></path></g></g><g id="elgnx07ewbzio"><path d="M169.44,390l-30.68-17.83,2.46.32a52.07,52.07,0,0,0,6.62.42,46.52,46.52,0,0,0,21.34-5.62c5.43-3.13,10.91-8.74,10.91-14.2a13.22,13.22,0,0,0-1.24-5.51l-.66-1.43,33.6,19.51-3.68,2.13c-.62.36-1,.8-1,1.26a1.6,1.6,0,0,0,1,1.26l3.69,2.13L181.19,390,178,388.13a6,6,0,0,0-5.38,0Z" style="opacity: 0.1; transform-origin: 175.28px 368.075px 0px;" class="animable"></path></g><path d="M183,377.51a10.46,10.46,0,0,1-5.12-1.25,4,4,0,0,1-2.32-3.24,3.43,3.43,0,0,1,2-2.89,10.67,10.67,0,0,1,9.62.19,4,4,0,0,1,2.32,3.25,3.42,3.42,0,0,1-2,2.89A9.24,9.24,0,0,1,183,377.51Z" style="fill: rgb(0, 157, 255); transform-origin: 182.53px 373.295px 0px;" id="elo9dz4c5u7lc" class="animable"></path><g id="elr4a6i66vaq"><path d="M116.71,359.22,83.18,339.9l3.68-2.12a1.31,1.31,0,0,0,0-2.53l-3.69-2.13,30.56-17.4,3.18,1.84a6,6,0,0,0,5.37,0l3.19-1.84,30.67,17.65-2.48-.32a52,52,0,0,0-6.63-.42c-7.27,0-15.95,2.19-21.61,5.46-7.06,4.08-10.64,8.45-10.64,13a19.09,19.09,0,0,0,1.29,6.71Z" style="opacity: 0.1; transform-origin: 119.655px 337.47px 0px;" class="animable"></path></g><path d="M112.71,337.12a10.53,10.53,0,0,1-5.13-1.25h0a4,4,0,0,1-2.31-3.25,3.41,3.41,0,0,1,2-2.88,10.64,10.64,0,0,1,9.62.19,4,4,0,0,1,2.31,3.25,3.42,3.42,0,0,1-2,2.88A9.13,9.13,0,0,1,112.71,337.12Z" style="fill: rgb(0, 157, 255); transform-origin: 112.235px 332.903px 0px;" id="elpz7kat05s2s" class="animable"></path><polygon points="231.13 368.8 231.13 382.36 175.32 414.58 175.32 401.02 231.13 368.8" style="fill: rgb(0, 157, 255); transform-origin: 203.225px 391.69px 0px;" id="el6fuhfki4t6f" class="animable"></polygon><g id="elkkdnrexficl"><g style="opacity: 0.4; transform-origin: 203.225px 391.69px 0px;" class="animable"><polygon points="231.13 368.8 231.13 382.36 175.32 414.58 175.32 401.02 231.13 368.8" style="fill: rgb(255, 255, 255); transform-origin: 203.225px 391.69px 0px;" id="ely004hl8ve38" class="animable"></polygon></g></g><polygon points="175.32 404.04 192.94 394.24 175.32 404.86 175.32 404.04" style="fill: rgb(0, 157, 255); transform-origin: 184.13px 399.55px 0px;" id="eln4g10lfe4s" class="animable"></polygon><polygon points="231.13 375.24 225.25 378.97 231.13 375.92 231.13 375.24" style="fill: rgb(0, 157, 255); transform-origin: 228.19px 377.105px 0px;" id="el2qsvky8klm7" class="animable"></polygon><polygon points="231.13 378.47 201.76 395.93 231.13 379.47 231.13 378.47" style="fill: rgb(0, 157, 255); transform-origin: 216.445px 387.2px 0px;" id="elceeu03h50hv" class="animable"></polygon><polygon points="175.32 407.27 204.69 390.84 175.32 408.34 175.32 407.27" style="fill: rgb(0, 157, 255); transform-origin: 190.005px 399.59px 0px;" id="elf08rq14bg7f" class="animable"></polygon><polygon points="175.32 414.58 63.7 350.14 63.7 336.58 175.32 401.02 175.32 414.58" style="fill: rgb(0, 157, 255); transform-origin: 119.51px 375.58px 0px;" id="eln6f8gc1426g" class="animable"></polygon><g id="elef1nlq7fzvl"><g style="opacity: 0.15; transform-origin: 119.51px 375.58px 0px;" class="animable"><polygon points="175.32 414.58 63.7 350.14 63.7 336.58 175.32 401.02 175.32 414.58" id="el0388k0jc7uhs" style="transform-origin: 119.51px 375.58px 0px;" class="animable"></polygon></g></g><g id="el3p2pagadsjd"><g style="opacity: 0.3; mix-blend-mode: multiply; transform-origin: 172.38px 402.94px 0px;" class="animable"><polygon points="175.32 404.04 169.44 401.02 175.32 404.86 175.32 404.04" id="els19j5003a5" style="transform-origin: 172.38px 402.94px 0px;" class="animable"></polygon></g></g><g id="ele0b6t4przfn"><g style="opacity: 0.3; mix-blend-mode: multiply; transform-origin: 160.55px 399.55px 0px;" class="animable"><polygon points="175.32 407.27 145.78 390.76 175.32 408.34 175.32 407.27" id="elkxefprr5lh" style="transform-origin: 160.55px 399.55px 0px;" class="animable"></polygon></g></g><g id="elwre071r4clf"><g style="opacity: 0.3; mix-blend-mode: multiply; transform-origin: 73.98px 349.095px 0px;" class="animable"><polygon points="63.7 342.96 84.26 355.23 63.7 343.76 63.7 342.96" id="elnn1b8hcm5g" style="transform-origin: 73.98px 349.095px 0px;" class="animable"></polygon></g></g><g id="elho1gnti6yyb"><g style="opacity: 0.3; mix-blend-mode: multiply; transform-origin: 69.575px 349.955px 0px;" class="animable"><polygon points="63.7 346.37 75.45 353.54 63.7 347.13 63.7 346.37" id="elkgg3jgbk3gp" style="transform-origin: 69.575px 349.955px 0px;" class="animable"></polygon></g></g><polygon points="185.04 339.94 127.29 373.29 109.67 363.12 167.42 329.76 185.04 339.94" style="fill: rgb(250, 250, 250); transform-origin: 147.355px 351.525px 0px;" id="elunzjlqbn8l" class="animable"></polygon><polygon points="109.67 363.12 109.67 377.88 127.29 388.05 127.29 373.29 109.67 363.12" style="fill: rgb(235, 235, 235); transform-origin: 118.48px 375.585px 0px;" id="elk38o9vfwz7r" class="animable"></polygon><polygon points="127.29 388.05 128.32 387.45 127.29 386.86 127.29 388.05" style="fill: rgb(224, 224, 224); transform-origin: 127.805px 387.455px 0px;" id="el2kqpy1l97w4" class="animable"></polygon><polygon points="185.04 339.94 185.04 342.19 183.09 341.06 185.04 339.94" style="fill: rgb(224, 224, 224); transform-origin: 184.065px 341.065px 0px;" id="eluqkxseycjei" class="animable"></polygon><g id="elku9ykuwr7k"><g style="opacity: 0.3; mix-blend-mode: multiply; transform-origin: 127.805px 380.365px 0px;" class="animable"><polygon points="128.32 387.44 128.32 373.89 127.29 373.29 127.29 386.85 128.32 387.44" id="el27jix3og87o" style="transform-origin: 127.805px 380.365px 0px;" class="animable"></polygon></g></g><g id="eluako1xnx32"><g style="opacity: 0.2; mix-blend-mode: multiply; transform-origin: 155.71px 357.475px 0px;" class="animable"><polygon points="128.32 373.89 184.13 341.66 183.09 341.06 127.29 373.29 128.32 373.89" id="eljcvrg5c7e1m" style="transform-origin: 155.71px 357.475px 0px;" class="animable"></polygon></g></g><polygon points="183.15 338.84 125.38 372.19 123.92 371.34 181.67 338 183.15 338.84" style="fill: rgb(69, 90, 100); transform-origin: 153.535px 355.095px 0px;" id="elunsuheagftg" class="animable"></polygon><polygon points="170.8 331.72 113.04 365.06 111.58 364.22 169.33 330.88 170.8 331.72" style="fill: rgb(69, 90, 100); transform-origin: 141.19px 347.97px 0px;" id="el9ovwkzre5zq" class="animable"></polygon><polygon points="125.38 372.19 125.38 386.95 123.92 386.1 123.92 371.34 125.38 372.19" style="fill: rgb(38, 50, 56); transform-origin: 124.65px 379.145px 0px;" id="eljubdhy7oi8m" class="animable"></polygon><polygon points="113.04 365.06 113.04 379.82 111.57 378.97 111.58 364.22 113.04 365.06" style="fill: rgb(38, 50, 56); transform-origin: 112.305px 372.02px 0px;" id="el8x9u6ob7at" class="animable"></polygon><polygon points="231.13 352.82 119.51 288.38 63.7 320.6 175.32 385.04 231.13 352.82" style="fill: rgb(0, 157, 255); transform-origin: 147.415px 336.71px 0px;" id="eldtcrn7a9x45" class="animable"></polygon><g id="eljf79qyutd4l"><path d="M69.57,320.6l105.75,61,49.94-28.83L119.51,291.77Zm2.94,0,47-27.13,102.81,59.35-47,27.14Z" style="opacity: 0.15; transform-origin: 147.415px 336.685px 0px;" class="animable"></path></g><g id="elw467ra62dv"><g style="opacity: 0.15; transform-origin: 147.415px 336.714px 0px;" class="animable"><path d="M149.5,353.4c-7.61,0-15.41-1.76-21.43-5.23h0c-5.86-3.38-9.21-8-9.21-12.66,0-4.27,2.75-8.22,7.74-11.1,10.67-6.16,28.68-5.78,40.16.85,5.85,3.38,9.21,8,9.21,12.66,0,4.27-2.75,8.21-7.74,11.1S156.41,353.4,149.5,353.4ZM145.33,321c-6.73,0-13.29,1.41-18.23,4.27-4.67,2.69-7.24,6.33-7.24,10.23,0,4.3,3.17,8.6,8.71,11.79h0c11.2,6.47,28.77,6.85,39.16.85,4.67-2.7,7.24-6.33,7.24-10.23,0-4.3-3.17-8.6-8.71-11.8C160.38,322.73,152.75,321,145.33,321Z" id="eltbvrbfy3pnn" style="transform-origin: 147.415px 336.714px 0px;" class="animable"></path></g></g><g id="eloj2ag8y9htf"><g style="opacity: 0.1; transform-origin: 147.415px 336.7px 0px;" class="animable"><path d="M149.5,349.8c-7.23,0-14.38-1.74-19.62-4.76-4.71-2.72-7.41-6.19-7.41-9.53,0-2.93,2.11-5.76,5.94-8,4.37-2.52,10.38-3.91,16.92-3.91,7.23,0,14.38,1.73,19.62,4.76,4.71,2.72,7.41,6.19,7.41,9.53,0,2.93-2.11,5.76-5.94,8C162.05,348.41,156,349.8,149.5,349.8Z" id="elcjkb8uxbo2m" style="transform-origin: 147.415px 336.7px 0px;" class="animable"></path></g></g><g id="eleyenc5bzxna"><path d="M169.44,374l-30.68-17.82,2.46.32a52.07,52.07,0,0,0,6.62.42,46.52,46.52,0,0,0,21.34-5.62c5.43-3.13,10.91-8.74,10.91-14.21a13.21,13.21,0,0,0-1.24-5.5l-.66-1.43,33.6,19.5-3.68,2.13a1.62,1.62,0,0,0-1,1.26,1.6,1.6,0,0,0,1,1.27l3.69,2.13L181.19,374,178,372.16a6,6,0,0,0-5.38,0Z" style="opacity: 0.1; transform-origin: 175.28px 352.08px 0px;" class="animable"></path></g><path d="M183,361.54a10.46,10.46,0,0,1-5.12-1.25,4,4,0,0,1-2.32-3.25,3.43,3.43,0,0,1,2-2.88,10.64,10.64,0,0,1,9.62.19,4,4,0,0,1,2.32,3.25,3.41,3.41,0,0,1-2,2.88A9.13,9.13,0,0,1,183,361.54Z" style="fill: rgb(0, 157, 255); transform-origin: 182.53px 357.323px 0px;" id="elywt4kkv2xxs" class="animable"></path><g id="elvi2k306xoj"><path d="M116.71,343.25,83.18,323.93l3.68-2.13a1.6,1.6,0,0,0,1-1.26c0-.46-.34-.9-1-1.26l-3.69-2.14,30.56-17.4,3.18,1.85a6.07,6.07,0,0,0,5.37,0l3.19-1.84,30.67,17.66-2.48-.32a52,52,0,0,0-6.63-.43c-7.27,0-15.95,2.2-21.61,5.47-7.06,4.08-10.64,8.45-10.64,13a19.18,19.18,0,0,0,1.29,6.71Z" style="opacity: 0.1; transform-origin: 119.655px 321.495px 0px;" class="animable"></path></g><path d="M112.71,321.15a10.53,10.53,0,0,1-5.13-1.25h0a4,4,0,0,1-2.31-3.25,3.42,3.42,0,0,1,2-2.89,10.64,10.64,0,0,1,9.62.2,4,4,0,0,1,2.31,3.24,3.42,3.42,0,0,1-2,2.89A9.13,9.13,0,0,1,112.71,321.15Z" style="fill: rgb(0, 157, 255); transform-origin: 112.235px 316.93px 0px;" id="eld32s34x70o" class="animable"></path><polygon points="231.13 352.82 231.13 366.39 175.32 398.61 175.32 385.04 231.13 352.82" style="fill: rgb(0, 157, 255); transform-origin: 203.225px 375.715px 0px;" id="eldjma8ii0tcv" class="animable"></polygon><g id="elib798k89y4"><g style="opacity: 0.4; transform-origin: 203.225px 375.715px 0px;" class="animable"><polygon points="231.13 352.82 231.13 366.39 175.32 398.61 175.32 385.04 231.13 352.82" style="fill: rgb(255, 255, 255); transform-origin: 203.225px 375.715px 0px;" id="eli49w3gwqpy8" class="animable"></polygon></g></g><polygon points="175.32 388.07 192.94 378.26 175.32 388.89 175.32 388.07" style="fill: rgb(0, 157, 255); transform-origin: 184.13px 383.575px 0px;" id="elo0q5nqwkjh" class="animable"></polygon><polygon points="231.13 359.27 225.25 363 231.13 359.95 231.13 359.27" style="fill: rgb(0, 157, 255); transform-origin: 228.19px 361.135px 0px;" id="elwtlmki2j9mn" class="animable"></polygon><polygon points="231.13 362.5 201.76 379.96 231.13 363.5 231.13 362.5" style="fill: rgb(0, 157, 255); transform-origin: 216.445px 371.23px 0px;" id="elqebntq3sz6" class="animable"></polygon><polygon points="175.32 391.3 204.69 374.87 175.32 392.36 175.32 391.3" style="fill: rgb(0, 157, 255); transform-origin: 190.005px 383.615px 0px;" id="elrrskn0sf2gh" class="animable"></polygon><polygon points="175.32 398.61 63.7 334.17 63.7 320.6 175.32 385.04 175.32 398.61" style="fill: rgb(0, 157, 255); transform-origin: 119.51px 359.605px 0px;" id="elzvi2l934nl" class="animable"></polygon><g id="el5viu0bu2852"><g style="opacity: 0.15; transform-origin: 119.51px 359.605px 0px;" class="animable"><polygon points="175.32 398.61 63.7 334.17 63.7 320.6 175.32 385.04 175.32 398.61" id="elypd7c739za9" style="transform-origin: 119.51px 359.605px 0px;" class="animable"></polygon></g></g><g id="elnl1tv2kqru"><g style="opacity: 0.3; mix-blend-mode: multiply; transform-origin: 172.38px 386.965px 0px;" class="animable"><polygon points="175.32 388.07 169.44 385.04 175.32 388.89 175.32 388.07" id="el7efgwa6vwxa" style="transform-origin: 172.38px 386.965px 0px;" class="animable"></polygon></g></g><g id="el2z4uigccp7q"><g style="opacity: 0.3; mix-blend-mode: multiply; transform-origin: 160.55px 383.575px 0px;" class="animable"><polygon points="175.32 391.3 145.78 374.79 175.32 392.36 175.32 391.3" id="el4vfqx1h0xo8" style="transform-origin: 160.55px 383.575px 0px;" class="animable"></polygon></g></g><g id="elqic4m3ly7pj"><g style="opacity: 0.3; mix-blend-mode: multiply; transform-origin: 73.98px 333.125px 0px;" class="animable"><polygon points="63.7 326.99 84.26 339.26 63.7 327.79 63.7 326.99" id="elzhxbvg78bce" style="transform-origin: 73.98px 333.125px 0px;" class="animable"></polygon></g></g><g id="elxcsrv1v5qse"><g style="opacity: 0.3; mix-blend-mode: multiply; transform-origin: 69.575px 333.98px 0px;" class="animable"><polygon points="63.7 330.4 75.45 337.56 63.7 331.16 63.7 330.4" id="elj4tujptczte" style="transform-origin: 69.575px 333.98px 0px;" class="animable"></polygon></g></g><polygon points="185.04 323.96 127.29 357.31 109.67 347.14 167.42 313.79 185.04 323.96" style="fill: rgb(250, 250, 250); transform-origin: 147.355px 335.55px 0px;" id="elkwewgyic41f" class="animable"></polygon><polygon points="109.67 347.14 109.67 361.9 127.29 372.07 127.29 357.31 109.67 347.14" style="fill: rgb(235, 235, 235); transform-origin: 118.48px 359.605px 0px;" id="elmn26nuptgn" class="animable"></polygon><polygon points="127.29 372.07 128.32 371.48 127.29 370.88 127.29 372.07" style="fill: rgb(224, 224, 224); transform-origin: 127.805px 371.475px 0px;" id="elb07fizdro4" class="animable"></polygon><polygon points="185.04 323.96 185.04 326.22 183.09 325.09 185.04 323.96" style="fill: rgb(224, 224, 224); transform-origin: 184.065px 325.09px 0px;" id="elhj3exdzv9n" class="animable"></polygon><g id="el9v87stlwgr7"><g style="opacity: 0.3; mix-blend-mode: multiply; transform-origin: 127.805px 364.39px 0px;" class="animable"><polygon points="128.32 371.47 128.32 357.91 127.29 357.31 127.29 370.88 128.32 371.47" id="elyzgj45kp64b" style="transform-origin: 127.805px 364.39px 0px;" class="animable"></polygon></g></g><g id="elxua5wm5qy1"><g style="opacity: 0.2; mix-blend-mode: multiply; transform-origin: 155.71px 341.5px 0px;" class="animable"><polygon points="128.32 357.91 184.13 325.69 183.09 325.09 127.29 357.31 128.32 357.91" id="elbs51dp65ml7" style="transform-origin: 155.71px 341.5px 0px;" class="animable"></polygon></g></g><polygon points="183.15 322.87 125.38 356.21 123.92 355.37 181.67 322.02 183.15 322.87" style="fill: rgb(69, 90, 100); transform-origin: 153.535px 339.115px 0px;" id="elx15r9rxvh9" class="animable"></polygon><polygon points="170.8 315.75 113.04 349.09 111.58 348.24 169.33 314.9 170.8 315.75" style="fill: rgb(69, 90, 100); transform-origin: 141.19px 331.995px 0px;" id="elfc99ug2r3v" class="animable"></polygon><polygon points="125.38 356.21 125.38 370.98 123.92 370.13 123.92 355.37 125.38 356.21" style="fill: rgb(38, 50, 56); transform-origin: 124.65px 363.175px 0px;" id="ela3xqzus1bpj" class="animable"></polygon><polygon points="113.04 349.09 113.04 363.85 111.57 363 111.58 348.24 113.04 349.09" style="fill: rgb(38, 50, 56); transform-origin: 112.305px 356.045px 0px;" id="eltmz5sucd57p" class="animable"></polygon></g></g><defs>     <filter id="active" height="200%">         <feMorphology in="SourceAlpha" result="DILATED" operator="dilate" radius="2"></feMorphology>                <feFlood flood-color="#32DFEC" flood-opacity="1" result="PINK"></feFlood>        <feComposite in="PINK" in2="DILATED" operator="in" result="OUTLINE"></feComposite>        <feMerge>            <feMergeNode in="OUTLINE"></feMergeNode>            <feMergeNode in="SourceGraphic"></feMergeNode>        </feMerge>    </filter>    <filter id="hover" height="200%">        <feMorphology in="SourceAlpha" result="DILATED" operator="dilate" radius="2"></feMorphology>                <feFlood flood-color="#ff0000" flood-opacity="0.5" result="PINK"></feFlood>        <feComposite in="PINK" in2="DILATED" operator="in" result="OUTLINE"></feComposite>        <feMerge>            <feMergeNode in="OUTLINE"></feMergeNode>            <feMergeNode in="SourceGraphic"></feMergeNode>        </feMerge>            <feColorMatrix type="matrix" values="0   0   0   0   0                0   1   0   0   0                0   0   0   0   0                0   0   0   1   0 "></feColorMatrix>    </filter></defs></svg>