<?xml version="1.0" encoding="iso-8859-1"?>
<!-- Generator: Adobe Illustrator 18.0.0, SVG Export Plug-In . SVG Version: 6.00 Build 0)  -->
<!DOCTYPE svg PUBLIC "-//W3C//DTD SVG 1.1//EN" "http://www.w3.org/Graphics/SVG/1.1/DTD/svg11.dtd">
<svg version="1.1" id="Capa_1" xmlns="http://www.w3.org/2000/svg" xmlns:xlink="http://www.w3.org/1999/xlink" x="0px" y="0px"
	 viewBox="0 0 60 60" style="enable-background:new 0 0 60 60;" xml:space="preserve" fill="#ff6200">
<path d="M59,52.5v-4h-2v-2c0-1.103-0.897-2-2-2v-16c1.103,0,2-0.897,2-2v-2h2.618l-3-6h-6.877l-2.024-6H46.43
	c-0.703-6.15-7.797-11-16.43-11c-8.699,0-15.847,4.85-16.555,11h-1.163l-2.024,6H3.382l-3,6H3v2c0,1.103,0.897,2,2,2v16
	c-1.103,0-2,0.897-2,2v2H1v4H0v6h60v-6H59z M55,26.5c-1.103,0-2,0.897-2,2v16c0,1.103,0.897,2,2,2v2h-6v-2c1.103,0,2-0.897,2-2v-16
	c0-1.103-0.897-2-2-2v-2h6V26.5z M11,44.5v-16c1.103,0,2-0.897,2-2v-2h1v2c0,1.103,0.897,2,2,2v16c-1.103,0-2,0.897-2,2v2h-1v-2
	C13,45.397,12.103,44.5,11,44.5z M16,46.5c1.103,0,2-0.897,2-2v-16c0-1.103-0.897-2-2-2v-2h6v2c-1.103,0-2,0.897-2,2v16
	c0,1.103,0.897,2,2,2v2h-6V46.5z M22,44.5v-16c1.103,0,2-0.897,2-2v-2h1v2c0,1.103,0.897,2,2,2v16c-1.103,0-2,0.897-2,2v2h-1v-2
	C24,45.397,23.103,44.5,22,44.5z M27,46.5c1.103,0,2-0.897,2-2v-16c0-1.103-0.897-2-2-2v-2h6v2c-1.103,0-2,0.897-2,2v16
	c0,1.103,0.897,2,2,2v2h-6V46.5z M33,44.5v-16c1.103,0,2-0.897,2-2v-2h1v2c0,1.103,0.897,2,2,2v16c-1.103,0-2,0.897-2,2v2h-1v-2
	C35,45.397,34.103,44.5,33,44.5z M38,46.5c1.103,0,2-0.897,2-2v-16c0-1.103-0.897-2-2-2v-2h6v2c-1.103,0-2,0.897-2,2v16
	c0,1.103,0.897,2,2,2v2h-6V46.5z M44,44.5v-16c1.103,0,2-0.897,2-2v-2h1v2c0,1.103,0.897,2,2,2v16c-1.103,0-2,0.897-2,2v2h-1v-2
	C46,45.397,45.103,44.5,44,44.5z M15.674,15.638l-2.908,1.684l0.951-2.822h3.923L15.674,15.638z M17.305,17.006L30,9.655
	L45.276,18.5H14.724L17.305,17.006z M47.233,17.322l-2.908-1.684L42.359,14.5h3.923L47.233,17.322z M30,3.5
	c7.506,0,13.698,3.954,14.428,9h-5.522L30,7.345L21.095,12.5h-5.644C16.212,7.527,22.565,3.5,30,3.5z M4.618,20.5h2.659h3.559
	l0.219,0.124L11.27,20.5h37.497l0.228,0.117l0.192-0.117h3.537h2.659l1,2H47h-1H36h-1H25h-1H14h-1H3.618L4.618,20.5z M5,46.5
	c1.103,0,2-0.897,2-2v-16c0-1.103-0.897-2-2-2v-2h6v2c-1.103,0-2,0.897-2,2v16c0,1.103,0.897,2,2,2v2H5V46.5z M3,50.5h10h1h10h1h10
	h1h10h1h10v2H3V50.5z M58,56.5H2v-2h56V56.5z"/>
<g>
</g>
<g>
</g>
<g>
</g>
<g>
</g>
<g>
</g>
<g>
</g>
<g>
</g>
<g>
</g>
<g>
</g>
<g>
</g>
<g>
</g>
<g>
</g>
<g>
</g>
<g>
</g>
<g>
</g>
</svg>
